<svg xmlns="http://www.w3.org/2000/svg" width="1205" height="1485" style="shape-rendering:geometricPrecision;text-rendering:geometricPrecision;image-rendering:optimizeQuality;fill-rule:evenodd;clip-rule:evenodd"><path style="opacity:.965" fill="#070808" d="M958 102a341 341 0 0 0-31 75c-7 26-11 52-10 79l-5 107c30 18 58 40 84 65h-23c-15-15-30-28-46-40l-2 2a1062 1062 0 0 0-70-53l-1-5a89 89 0 0 1 34 17l10 7-3-36 11-103a335 335 0 0 1 38-111c-31 21-58 46-83 74-25 30-39 64-44 104-1 11-3 23-6 34l1 2 11 4c8 4 7 6-2 6-27-4-53-6-80-6-14-1-28 2-41 8v25l-4 2a573 573 0 0 0-44-111l-22-64c-13-33-30-64-51-92l-41-58-17-20 3 12a365 365 0 0 1-9 127l-34 97c-15 48-19 97-14 147l2 31h-18c-2-18-3-36-2-53h-5c-2-46 5-90 19-133l32-84c16-51 22-103 18-155 1-2 3-3 6-2a771 771 0 0 1 100 124c18 34 32 70 42 108l24 51a285 285 0 0 1 13 32c32-6 64-7 97-2l5-16c4-24 9-47 16-69A263 263 0 0 1 948 96c3-2 7-3 11-2l-1 8Z"/><path style="opacity:1" fill="#2c2e2d" d="m696 359-6 3c-4 7-9 13-15 18-4 1-7 3-10 6-4 1-6 0-9-1-6-32-10-63-14-94-7-35-15-70-25-103a564 564 0 0 0-93-162l-3-12 17 20 41 58a442 442 0 0 1 72 156 573 573 0 0 1 45 111Z"/><path style="opacity:1" fill="#404140" d="M524 26a3326 3326 0 0 1 67 104c10 18 18 38 26 58a1053 1053 0 0 1 39 197c3 1 5 2 9 1 3-3 6-5 10-6 6-5 11-11 15-18l6-3 4-2v-25c13-6 27-9 41-8 27 0 53 2 80 6 9 0 10-2 2-6l-11-4-1-2c3-11 5-23 6-34 5-40 19-74 44-104a479 479 0 0 1 85-73c-12 19-22 40-28 62-3 1-5 3-6 6-16 6-30 14-43 23a74 74 0 0 0-25 39c-1 11 1 23 6 34a663 663 0 0 1 32 74c-9-6-18-11-28-13l1 5c2 13 9 24 20 33l47 30c-5 9-6 18-1 28h-80c0-25-11-39-34-43-7 1-14 3-19 6-16 8-21 20-15 37H492c-5-5-8-10-11-15l-4-2-10-14c-5-50-1-99 14-147l33-97a365 365 0 0 0 10-127Z"/><path style="opacity:1" fill="#0a0a09" d="m573 376 5-20 25-79c6-24 6-47 0-70-3-9-7-17-11-24l-40-56a78 78 0 0 1-12-46c1-2 2-2 3 0 2 12 6 23 13 34l38 46c15 18 24 39 28 63 2 24-1 49-8 73a3099 3099 0 0 1-35 90c-5 2-7 1-8-3l2-8Z"/><path style="opacity:.78" fill="#3e403f" d="m958 102-3 14-13 19c4-12 9-23 16-33Z"/><path style="opacity:1" fill="#f17b1f" d="M542 102c2 8 5 17 10 25l40 56c4 7 8 15 11 24 6 23 6 46 0 70l-25 79v-28l-9-109-4-13a245 245 0 0 1-24-69c-1-11-2-22-1-32 0-2 1-3 2-3Z"/><path style="opacity:1" fill="#f5911e" d="m541 137 9 36 15 33 4 13 9 109v28l-5 20c-13 15-29 27-46 36-13 6-25 6-36 0-6-4-9-10-11-16-1-14 0-27 3-40l53-192 5-27Z"/><path style="opacity:.839" fill="#3d3f3e" d="m933 158-3 25-13 73a325 325 0 0 1 16-98Z"/><path style="opacity:1" fill="#ee7a1f" d="M918 169c-6 15-9 31-12 48l-11 103 3 36-10-7 1-2c-2-6-3-12-2-17v-76c3-22 8-43 15-63a64 64 0 0 1 16-22Z"/><path style="opacity:1" fill="#f4911e" d="M912 175c-4 4-8 10-10 16-7 20-12 41-15 63v76c-1 5 0 11 2 17l-1 2-6-4-17-43-15-31c-5-11-7-23-6-34 4-16 12-29 25-39 13-9 27-17 43-23Z"/><path style="opacity:1" fill="#2d2e2d" d="m855 337 8 7c21 14 41 30 62 46l-2 8a44393 44393 0 0 0-48-27c-11-10-18-21-20-34Z"/><path style="opacity:.99" fill="#231f20" d="M444 375h5c-1 17 0 35 2 53h-19v11a503 503 0 0 0-270 791l7 6v3l19 20a459 459 0 0 0 197 135 484 484 0 0 0 385-14 467 467 0 0 0 79-46l1-24 1 23a505 505 0 0 0 205-491c2-11 6-20 11-29l6-20c4-3 9-5 15-7l12-11a566 566 0 0 1-204 599 1617 1617 0 0 1-69 45l-43 20a2145 2145 0 0 1-86 29c-37 9-74 14-111 17h-53A563 563 0 0 1 0 958v-68a562 562 0 0 1 444-515Z"/><path style="opacity:1" fill="#f4911e" d="M841 428h-68c-6-17-1-29 15-37 5-3 12-5 19-6 23 4 34 18 34 43Z"/><path style="opacity:1" fill="#ef7a1f" d="M973 428h-20c-7-9-14-15-23-20l-7-10 2-8 2-2c16 12 31 25 46 40Z"/><path style="opacity:1" fill="#2c2e2d" d="m467 397 10 14 4 2c3 5 6 10 11 15h-23l-2-31Z"/><path style="opacity:1" fill="#f3901e" d="m923 398 7 10c9 5 16 11 23 20h-32c-5-10-4-19 1-28-1-1 0-2 1-2Z"/><path style="opacity:.996" fill="#e33d32" d="M451 428h724v69h-34v34h-34v33h-34v19l-25-19h24v-34h34v-34h34v-34H896v34h-34l-1 34v-68H608v34h-34v-34H432v-34h19Z"/><path style="opacity:1" fill="#96c2e7" d="M432 439v23h22a365 365 0 0 1-20 201l-40 82c-17 38-33 77-49 117-14 0-26 4-37 14l-14 18c-10 17-19 36-28 55-2 4-3 9-2 14 6 14 14 27 24 39a2771 2771 0 0 1-119 234l-7-6a501 501 0 0 1 270-791Z"/><path style="opacity:.999" fill="#090909" d="M454 462h21v1c10 50 8 100-4 151l-19 60c-39 90-78 180-114 271a760 760 0 0 0 98 59 434 434 0 0 0 293 40c13-4 26-9 38-16 0-3 0-5-2-7-8-11-15-23-20-35 0-3 1-4 5-3l6 8a344 344 0 0 1 24-65c11-24 24-46 37-69a408 408 0 0 0-140 4l8-5a348 348 0 0 1 180-6l98 19c57 6 92-19 103-76l-9-8c-15 8-31 13-48 13-32-3-64-8-95-15a247 247 0 0 1-24 34c-5 2-8 2-11-2-6-10-11-20-12-31v-12c-61-15-123-20-185-16v-4c37-6 75-7 113-3l185 33c12 2 24 3 37 3l16-3 24-8h3c3 4 6 8 11 11h9c6-1 11-4 14-9 6-12 13-23 21-33l13-18 3-9 1-6-8-10c-5-9-5-16 3-22 8-5 18-7 28-4 1-3 0-5-1-7l-10-16-38-29c-30-25-61-48-92-70l-26-21-18-17c-10-14-19-28-26-43l-2-9h198v34h-34v34h-34v34h-24l25 19c22 17 45 34 70 50 9 7 16 16 21 27 4 13 2 25-6 36l-12 12-9 28-18 22c-4 9-10 17-15 26-1-4-2-7-4-9l-12 11c-6 2-11 4-15 7l-6 20c-5 9-9 18-11 29v8a78 78 0 0 1-59 32c-15 1-29 0-43-1l-88-17c-13-3-26-4-38-5a470 470 0 0 0-51 115c9 1 17 3 26 8l7 10c3 5 5 11 6 18 2 18 5 36 10 54l-3 6c-4 2-7 5-10 9 13 31 19 63 16 98-2 19-3 38-3 58a163 163 0 0 1 23 99l-23 16c2-22 2-44 0-65l-8-26-12-30 2-78c-1-21-5-40-12-59-11 8-24 16-36 22l-28 8c-7-4-13-6-20-7-20-3-35 3-47 19a543 543 0 0 1-179-27l-69-27c-35-13-68-30-98-50l-13-10a2828 2828 0 0 1-118 239 331 331 0 0 1-19-23 2771 2771 0 0 0 119-234c-10-12-18-25-24-39-1-5 0-10 2-14 9-19 18-38 28-55l14-18c11-10 23-14 37-14a3172 3172 0 0 1 89-199 365 365 0 0 0 20-201Z"/><path style="opacity:1" fill="#2c2e2d" d="M475 463h56l12 13c9 13 12 27 10 44-2 12-5 23-10 35-10 19-19 39-28 60-3 16-4 33-3 50a605 605 0 0 0 52 186c2 8 0 9-7 5-8-11-16-22-25-31-13-21-23-44-29-67l-9-42c-5-5-11-7-18-5-5 1-8 3-12 6-7 14-10 29-8 46v19a638 638 0 0 0 83 201l4 14-3-1c-15-12-27-27-38-42l-13-15c-12-5-23-3-32 6-8 19-15 39-21 59a760 760 0 0 1-98-59c36-91 75-181 114-271l19-60c12-51 14-101 4-151Z"/><path style="opacity:1" fill="#404240" d="m942 462 2 9c7 15 16 29 26 43l18 17c-6 4-10 10-12 18v25c6 18 14 36 25 52 4 11 10 21 18 30-1 18 5 34 19 47 8 6 17 9 28 10 20 8 41 9 63 2l2 1-3 9c-7 3-13 7-20 9-4 1-7 0-9-1-27 10-49 5-68-15l-6-11-26-28-10-24c-5-12-13-20-23-27-8-6-14-14-17-23l-5-31c-3-10-10-14-19-15h-38l-38 22c-43 16-86 26-131 31l-69 12c-13 0-25-3-36-9-9-6-12-13-10-23l10-30c-2-18-12-24-29-20-35 12-49 35-43 72l20 64 9 63a428 428 0 0 0 36 87l13 51c8 27 19 53 33 78 7 12 16 22 27 30 15 10 31 10 47 1l13-9a74 74 0 0 0-10 65 434 434 0 0 1-293-40c6-20 13-40 21-59 9-9 20-11 32-6l13 15c11 15 23 30 38 42l3 1-4-14-41-78c-18-40-32-81-42-123v-19c-2-17 1-32 8-46 4-3 7-5 12-6 7-2 13 0 18 5l9 42c6 23 16 46 29 67 9 9 17 20 25 31 7 4 9 3 7-5l-17-36c-18-49-30-99-35-150-1-17 0-34 3-50 9-21 18-41 28-60 5-12 8-23 10-35 2-17-1-31-10-44l-12-13h42c-1 11 0 22 1 33h34v34h34v34h34v33l118 1v-34h34v-34h33l1-34h34v-34h46Z"/><path style="opacity:1" fill="#503c3a" d="M475 463v-1h99v34c-1-11-2-22-1-33h-98Z"/><path style="opacity:1" fill="#070808" d="M861 496h-33c-1 10-2 21-1 33-12-1-23 0-33 1-1 10-2 21-1 33H676v-33h-68v-68h253v34Z"/><path style="opacity:1" fill="#fcfcfc" d="M1072 477h17v17h-17v-17Z"/><path style="opacity:1" fill="#a5a5a5" d="M1072 477c5-1 11-2 18-1l-1 18v-17h-17Z"/><path style="opacity:1" fill="#f8f8f8" d="M781 485h17v18h-17v-18Z"/><path style="opacity:1" fill="#fefffe" d="M1072 494v17h-17v-17h17Z"/><path style="opacity:1" fill="#e23d32" d="M608 496h34v34-34h-34Z"/><path style="opacity:1" fill="#e33d32" d="M828 496h33v34h-33v-34Z"/><path style="opacity:1" fill="#fefffe" d="M763 503h17v17-17h-17Z"/><path style="opacity:1" fill="#7b7b7b" d="M781 485v18l-1 17v-17h-17c5-1 11-2 17-1-1-6 0-12 1-17Z"/><path style="opacity:1" fill="#551b17" d="M828 496v34h-34c10-1 21-2 33-1-1-12 0-23 1-33Z"/><path style="opacity:1" fill="#e33d32" d="M642 530h34v34h-34v-34Z"/><path style="opacity:1" fill="#e33e32" d="M794 530h33v33h-33v-33Z"/><path style="opacity:1" fill="#272929" d="m988 531 26 21c31 22 62 45 92 70l19 23c4 4 7 10 10 16v7c-3 2-6 6-8 10-8 6-8 13-3 22l8 10-1 6-2-1c-22 7-43 6-63-2 11 0 21-3 30-9 7-8 9-16 6-25l-6-3c-21-6-40-4-59 5-1 0-2 1-1 2l-7-7-8-20c-1-2-2-2-2 0-8-9-14-19-18-30-11-16-19-34-25-52v-25c2-8 6-14 12-18Z"/><path style="opacity:1" fill="#f5911e" d="m1031 718-1 1c11 15 12 30 1 47l-14 19c-13 0-25-1-37-3l-185-33c-38-4-76-3-113 3v4c-2 1-2 3 1 5a2046 2046 0 0 1 118 7l66 16c1 11 6 21 12 31 3 4 6 4 11 2l16-22 59 12 38 6 21 1c12 4 23 3 34-3a60 60 0 0 1-49 45c-14 2-28 3-42 2l-78-10c-9-1-17 0-24 2l-46-7c-46-4-91 0-134 13l-8 5-7 3c26 2 52 9 77 20 11 11 22 22 31 35l2 7-5 11c-7 7-13 15-19 24a149 149 0 0 1-30 27c-16 9-32 9-47-1-11-8-20-18-27-30-14-25-25-51-33-78l-13-51c-7-20-16-38-25-56l-11-31-9-63-20-64c-6-37 8-60 43-72 17-4 27 2 29 20l-10 30c-2 10 1 17 10 23 11 6 23 9 36 9l69-12c45-5 88-15 131-31l38-22h38c9 1 16 5 19 15l5 31c3 9 9 17 17 23 10 7 18 15 23 27l10 24 26 28 6 11Z"/><path style="opacity:1" fill="#571b17" d="M794 530v34H676v-1h117c-1-12 0-23 1-33Z"/><path style="opacity:1" fill="#b33e36" d="M827 530h1v34h-34v-1h33v-33Z"/><path style="opacity:1" fill="#e33e32" d="M676 564h117v33H676v-33Z"/><path style="opacity:1" fill="#aa3f37" d="M793 564h1v34l-118-1h117v-33Z"/><path style="opacity:1" fill="#f37c1f" d="M864 597c18-1 34 4 49 16 21 21 40 43 57 67 8 11 13 23 15 37 2 19-6 33-22 43-15 8-30 10-46 8l-21-4c-27-10-55-18-82-23-24-4-48-5-72-1h-34c-21-3-37-13-49-29-13-34-2-56 33-67l14-3c36-1 72-8 107-19 14-13 31-21 51-25Z"/><path style="opacity:1" fill="#f5f5f5" d="m1106 622 38 29 10 16c1 2 2 4 1 7-10-3-20-1-28 4 2-4 5-8 8-10v-7c-3-6-6-12-10-16l-19-23Z"/><path style="opacity:1" fill="#010101" d="M1036 683c5-3 12-5 19-6l41-1 6 3c3 9 1 17-6 25-9 6-19 9-30 9-11-1-20-4-28-10a58 58 0 0 1-19-47c0-2 1-2 2 0l8 20 7 7Z"/><path style="opacity:1" fill="#d2d2d2" d="m1096 676-41 1c-7 1-14 3-19 6-1-1 0-2 1-2 19-9 38-11 59-5Z"/><path style="opacity:1" fill="#f07b20" d="M1031 718c19 20 41 25 68 15 2 1 5 2 9 1 7-2 13-6 20-9l-13 18-1-1c-17 7-28 18-35 35-1 2-1 5 1 8h-9c-5-3-8-7-11-11h-3l-24 8-16 3 14-19c11-17 10-32-1-47l1-1Z"/><path style="opacity:1" fill="#f28f1d" d="M1115 743c-8 10-15 21-21 33-3 5-8 8-14 9-2-3-2-6-1-8 7-17 18-28 35-35l1 1Z"/><path style="opacity:1" fill="#ef7a1f" d="m867 784-66-16-65-5-53-2c-3-2-3-4-1-5 62-4 124 1 185 16v12Z"/><path style="opacity:1" fill="#f7f7f7" d="M874 774c9 1 19 4 29 7-7 7-12 15-18 23-5-10-9-20-11-30Z"/><path style="opacity:1" fill="#f37c1f" d="M713 781c42 0 85 2 128 8 19 4 25 16 17 34l-8 6c-8 3-15 4-22 5l-91-1c-17 1-33 4-49 7-15 4-26 0-35-11-7-22 1-37 23-44 12-2 24-4 37-4Z"/><path style="opacity:1" fill="#ee791f" d="M865 850c7-2 15-3 24-2l78 10c14 1 28 0 42-3 17-3 31-12 41-26 4-6 7-12 8-18-11 6-22 7-34 3l-21-1-38-6-59-12c2-5 5-9 8-12 31 7 63 12 95 15 17 0 33-5 48-13l9 8c-11 57-46 82-103 76l-98-19Z"/><path style="opacity:1" fill="#96c2e7" d="m1056 850 1 1a505 505 0 0 1-206 482l-1-23c-2-27-10-52-24-75 0-20 1-39 3-58 3-35-3-67-16-98 3-4 6-7 10-9l3-6c-5-18-8-36-10-54-1-7-3-13-6-18l-7-10c-9-5-17-7-26-8l29-74 22-41c12 1 25 2 38 5l88 17c14 1 28 2 43 1 24-2 44-13 59-32Z"/><path style="opacity:1" fill="#f07a1f" d="m780 926-2-7c-9-13-20-24-31-35-25-11-51-18-77-20l7-3 4 2a408 408 0 0 1 136-5c-13 22-26 44-37 68Z"/><path style="opacity:1" fill="#ac2e24" d="M335 873c2-1 4 0 6 1l-23 55a39 39 0 0 1-5-42c1-3 3-4 5-6l17-8Z"/><path style="opacity:1" fill="#af2e24" d="M433 1022a2308 2308 0 0 0-16 41c-34-13-66-29-95-50-18-15-33-32-45-51v-4c6-14 12-28 20-41 1 8 5 16 10 23l19 17c33 25 69 46 107 65Z"/><path style="opacity:1" fill="#2d2f2d" d="M775 937c-8 17-14 35-19 54l-6-8c-4-1-5 0-5 3 5 12 12 24 20 35 2 2 2 4 2 7-12 7-25 12-38 16-7-24-4-45 10-65l17-18c6-9 12-17 19-24Z"/><path style="opacity:1" fill="#ad2e24" d="m772 989 19 1 8 5c1 5 0 10-4 15s-9 9-15 12c-6-6-10-12-14-19l6-14Z"/><path style="opacity:1" fill="#af2e24" d="m754 1098-5-7c-2-10-6-19-10-27-1-1-3-2-4-1 13-4 25-10 37-17l29-29c4 14 6 29 7 44-15 16-33 29-54 37Z"/><path style="opacity:1" fill="#2c2e2d" d="M417 1080a842 842 0 0 1-134 262c-36-23-68-51-95-83l11-17c39-73 75-147 107-222l13 10c30 20 63 37 98 50Z"/><path style="opacity:1" fill="#e23d32" d="M433 1022c45 22 93 37 144 46 53 9 105 7 158-5 1-1 3 0 4 1 4 8 8 17 10 27l5 7c-44 15-88 22-134 19l-52-7c-25-4-50-10-73-18l-78-29a2308 2308 0 0 1 16-41Z"/><path style="opacity:1" fill="#404240" d="m417 1080 69 26c31 11 63 19 97 24 27 4 54 6 82 4-14 22-12 43 6 63 10 10 22 14 37 13 22-3 37-16 43-37 4-21-3-38-19-51l28-8 2 1c20 45 28 92 23 142a690 690 0 0 1-7 71l-2 2c-22 9-38 24-47 46-4 7-7 15-8 24-33 10-66 17-99 22 5-13 7-26 7-40 1-17-3-32-12-46a52 52 0 0 0-38-18c-32-2-63 4-91 17-22 11-43 21-65 29-20 4-39 6-58 6-2 1-2 3-1 5 5 3 9 8 13 13l8 6c-37-14-71-31-102-52l29-38 26-42 53-110c10-24 18-48 26-72Z"/><path style="opacity:1" fill="#2d2f2d" d="M826 1285a95 95 0 0 1-48 43l-1-3 8-68c5-50-3-97-23-142l-2-1c12-6 25-14 36-22 7 19 11 38 12 59l-2 78 12 30 8 26Z"/><path style="opacity:1" fill="#4c3d3a" d="m568 1110 52 7a400 400 0 0 1-52-7Z"/><path style="opacity:1" fill="#ed7a20" d="M712 1115c-29 2-45 18-47 47 0 18 9 32 25 42 5 3 11 5 18 6-15 1-27-3-37-13-18-20-20-41-6-63 12-16 27-22 47-19Z"/><path style="opacity:1" fill="#f4901e" d="M712 1115c7 1 13 3 20 7 16 13 23 30 19 51-6 21-21 34-43 37a49 49 0 0 1-43-48c2-29 18-45 47-47Z"/><path style="opacity:1" fill="#f37c1f" d="M703 1127c28 0 41 14 40 43-7 20-22 29-43 26-20-7-29-21-26-42 5-15 14-24 29-27Z"/><path style="opacity:1" fill="#f07b20" d="M826 1285c2 21 2 43 0 65-18 11-37 21-56 30l6-50 2-2c21-9 37-24 48-43Z"/><path style="opacity:1" fill="#f4911e" d="m622 1422-22 2a484 484 0 0 1-223-36c-4-5-8-10-13-13-1-2-1-4 1-5 19 0 38-2 58-6 22-8 43-18 65-29 28-13 59-19 91-17 15 0 28 6 38 18 9 14 13 29 12 46 0 14-2 27-7 40ZM776 1330l-6 50-49 20c1-9 4-17 8-24 9-22 25-37 47-46Z"/><path style="opacity:.075" fill="#8ab1d2" d="m896 1374-4 3c0-2 2-3 4-3Z"/><path style="opacity:.704" fill="#92bbde" d="M892 1377c-36 30-76 53-120 69l12-7 43-21 65-41Z"/><path style="opacity:1" fill="#484e52" d="m784 1439-12 7-14 5c-4 0-6 1-8 3h-2a2145 2145 0 0 0 36-15Z"/><path style="opacity:.012" fill="#7e9db7" d="m758 1451-8 3c2-2 4-3 8-3Z"/><path style="opacity:.477" fill="#89b0d0" d="M748 1454h2l-39 11c11-5 24-9 37-11Z"/><path style="opacity:.149" fill="#82a5c4" d="m711 1465-13 3c4-2 8-3 13-3Z"/></svg>