<?xml version="1.0" encoding="UTF-8"?>
<!DOCTYPE svg PUBLIC "-//W3C//DTD SVG 1.1//EN" "http://www.w3.org/Graphics/SVG/1.1/DTD/svg11.dtd">
<svg xmlns="http://www.w3.org/2000/svg" version="1.1" width="3105px" height="1485px" style="shape-rendering:geometricPrecision; text-rendering:geometricPrecision; image-rendering:optimizeQuality; fill-rule:evenodd; clip-rule:evenodd" xmlns:xlink="http://www.w3.org/1999/xlink">
<g><path style="opacity:0.965" fill="#070808" d="M 957.5,101.5 C 950.898,111.707 945.565,122.707 941.5,134.5C 938.225,142.051 935.225,149.717 932.5,157.5C 929.866,163.565 927.7,169.898 926,176.5C 919.579,202.631 916.413,228.964 916.5,255.5C 914.817,291.16 913.317,326.827 912,362.5C 942.346,380.925 970.179,402.592 995.5,427.5C 987.833,427.5 980.167,427.5 972.5,427.5C 958.12,413.287 942.953,399.954 927,387.5C 926.292,388.381 925.458,389.047 924.5,389.5C 904.434,373.622 883.767,358.455 862.5,344C 859.964,341.295 857.297,338.795 854.5,336.5C 853.962,334.883 853.629,333.216 853.5,331.5C 863.609,334.222 872.942,338.555 881.5,344.5C 883.228,346.226 885.228,347.559 887.5,348.5C 890.849,350.934 894.349,353.267 898,355.5C 896.401,343.769 895.234,331.936 894.5,320C 897.677,285.428 901.51,250.928 906,216.5C 908.662,200.178 912.495,184.178 917.5,168.5C 924.299,146.803 933.632,126.137 945.5,106.5C 944.998,105.479 944.332,105.312 943.5,106C 913.271,127.218 885.771,151.718 861,179.5C 836.256,209.684 821.589,244.351 817,283.5C 816.223,295.279 814.056,306.779 810.5,318C 810.645,318.772 810.978,319.439 811.5,320C 815.243,321.136 818.91,322.47 822.5,324C 830.915,328.258 830.248,330.091 820.5,329.5C 794.086,326.424 767.586,324.424 741,323.5C 726.502,323.087 712.669,325.753 699.5,331.5C 700.636,339.785 700.803,348.118 700,356.5C 698.89,358.037 697.39,358.703 695.5,358.5C 688.581,341.244 682.748,323.577 678,305.5C 670.077,285.655 661.077,266.322 651,247.5C 644.201,226.104 637.201,204.771 630,183.5C 616.594,150.674 599.594,120.008 579,91.5C 565.333,72.1667 551.667,52.8333 538,33.5C 532.708,26.5396 527.042,19.8729 521,13.5C 521.518,17.619 522.351,21.619 523.5,25.5C 525.886,36.3551 526.886,47.3551 526.5,58.5C 526.422,90.3882 522.255,121.722 514,152.5C 503.402,184.96 492.402,217.294 481,249.5C 466.414,297.53 461.581,346.53 466.5,396.5C 466.836,406.856 467.502,417.19 468.5,427.5C 462.5,427.5 456.5,427.5 450.5,427.5C 448.638,409.911 447.971,392.244 448.5,374.5C 446.833,374.5 445.167,374.5 443.5,374.5C 442.492,329.056 448.992,284.722 463,241.5C 474.059,213.656 484.726,185.656 495,157.5C 510.957,107.027 516.957,55.36 513,2.5C 514.466,0.675095 516.299,0.175095 518.5,1C 525.596,6.0924 532.096,11.9257 538,18.5C 567.741,51.5659 594.407,86.8993 618,124.5C 636.837,158.671 651.17,194.671 661,232.5C 668.727,249.621 676.727,266.621 685,283.5C 689.223,293.283 692.89,303.283 696,313.5C 696.388,314.428 697.055,315.095 698,315.5C 730.122,309.566 762.289,309.066 794.5,314C 796.727,308.653 798.56,303.153 800,297.5C 803.678,274.107 809.012,251.107 816,228.5C 828.73,195.096 848.563,166.596 875.5,143C 896.78,123.078 920.78,107.078 947.5,95C 951.06,93.7633 954.727,93.2633 958.5,93.5C 958.425,96.2062 958.092,98.8728 957.5,101.5 Z"/></g>
<g><path style="opacity:1" fill="#2c2e2d" d="M 695.5,358.5 C 693.518,359.491 691.518,360.491 689.5,361.5C 685.766,368.73 680.766,374.897 674.5,380C 670.835,381.497 667.502,383.497 664.5,386C 661.412,386.847 658.579,386.347 656,384.5C 650.405,353.334 645.738,322.001 642,290.5C 635.397,255.755 627.064,221.421 617,187.5C 609.431,167.693 600.764,148.36 591,129.5C 580.166,113.169 569.832,96.5021 560,79.5C 547.97,61.3225 535.804,43.3225 523.5,25.5C 522.351,21.619 521.518,17.619 521,13.5C 527.042,19.8729 532.708,26.5396 538,33.5C 551.667,52.8333 565.333,72.1667 579,91.5C 599.594,120.008 616.594,150.674 630,183.5C 637.201,204.771 644.201,226.104 651,247.5C 661.077,266.322 670.077,285.655 678,305.5C 682.748,323.577 688.581,341.244 695.5,358.5 Z"/></g>
<g><path style="opacity:1" fill="#404140" d="M 523.5,25.5 C 535.804,43.3225 547.97,61.3225 560,79.5C 569.832,96.5021 580.166,113.169 591,129.5C 600.764,148.36 609.431,167.693 617,187.5C 627.064,221.421 635.397,255.755 642,290.5C 645.738,322.001 650.405,353.334 656,384.5C 658.579,386.347 661.412,386.847 664.5,386C 667.502,383.497 670.835,381.497 674.5,380C 680.766,374.897 685.766,368.73 689.5,361.5C 691.518,360.491 693.518,359.491 695.5,358.5C 697.39,358.703 698.89,358.037 700,356.5C 700.803,348.118 700.636,339.785 699.5,331.5C 712.669,325.753 726.502,323.087 741,323.5C 767.586,324.424 794.086,326.424 820.5,329.5C 830.248,330.091 830.915,328.258 822.5,324C 818.91,322.47 815.243,321.136 811.5,320C 810.978,319.439 810.645,318.772 810.5,318C 814.056,306.779 816.223,295.279 817,283.5C 821.589,244.351 836.256,209.684 861,179.5C 885.771,151.718 913.271,127.218 943.5,106C 944.332,105.312 944.998,105.479 945.5,106.5C 933.632,126.137 924.299,146.803 917.5,168.5C 915.167,170.167 913.167,172.167 911.5,174.5C 896.291,180.77 881.958,188.604 868.5,198C 856.251,208.246 848.084,221.08 844,236.5C 843.025,248.339 845.025,259.673 850,270.5C 855.272,280.711 860.272,291.044 865,301.5C 870.026,316.086 875.526,330.42 881.5,344.5C 872.942,338.555 863.609,334.222 853.5,331.5C 853.629,333.216 853.962,334.883 854.5,336.5C 857.193,350.029 863.86,361.196 874.5,370C 890.223,379.855 905.889,389.688 921.5,399.5C 916.732,408.703 916.399,418.036 920.5,427.5C 893.833,427.5 867.167,427.5 840.5,427.5C 841.29,403.352 829.956,389.019 806.5,384.5C 799.799,385.567 793.466,387.734 787.5,391C 772.068,399.015 767.068,411.182 772.5,427.5C 678.833,427.5 585.167,427.5 491.5,427.5C 487.441,422.933 483.941,417.933 481,412.5C 479.491,411.91 477.991,411.244 476.5,410.5C 473.498,405.513 470.164,400.847 466.5,396.5C 461.581,346.53 466.414,297.53 481,249.5C 492.402,217.294 503.402,184.96 514,152.5C 522.255,121.722 526.422,90.3882 526.5,58.5C 526.886,47.3551 525.886,36.3551 523.5,25.5 Z"/></g>
<g><path style="opacity:1" fill="#0a0a09" d="M 572.5,375.5 C 574.592,368.961 576.258,362.294 577.5,355.5C 586.263,329.373 594.763,303.04 603,276.5C 608.888,253.127 608.888,229.793 603,206.5C 599.881,198.261 596.214,190.261 592,182.5C 578.667,163.833 565.333,145.167 552,126.5C 547.037,118.776 543.537,110.442 541.5,101.5C 539.55,94.6423 539.05,87.6423 540,80.5C 541,79.1667 542,79.1667 543,80.5C 544.535,92.9039 548.869,104.237 556,114.5C 567.912,130.416 580.579,145.749 594,160.5C 609.033,178.905 618.366,199.905 622,223.5C 623.928,248.336 621.261,272.67 614,296.5C 604.06,324.321 593.726,351.988 583,379.5C 581.374,381.917 579.874,384.417 578.5,387C 574.366,389.389 571.7,388.222 570.5,383.5C 571.171,380.815 571.838,378.148 572.5,375.5 Z"/></g>
<g><path style="opacity:0.78" fill="#3e403f" d="M 957.5,101.5 C 957.808,106.371 956.975,111.037 955,115.5C 950.969,122.252 946.469,128.585 941.5,134.5C 945.565,122.707 950.898,111.707 957.5,101.5 Z"/></g>
<g><path style="opacity:1" fill="#f17b1f" d="M 541.5,101.5 C 543.537,110.442 547.037,118.776 552,126.5C 565.333,145.167 578.667,163.833 592,182.5C 596.214,190.261 599.881,198.261 603,206.5C 608.888,229.793 608.888,253.127 603,276.5C 594.763,303.04 586.263,329.373 577.5,355.5C 578.521,346.189 578.687,336.856 578,327.5C 574.613,291.191 571.613,254.858 569,218.5C 567.794,214.145 566.461,209.811 565,205.5C 559.195,194.888 554.195,183.888 550,172.5C 546.881,160.339 543.715,148.339 540.5,136.5C 539.521,125.85 539.354,115.183 540,104.5C 540.232,103.263 540.732,102.263 541.5,101.5 Z"/></g>
<g><path style="opacity:1" fill="#f5911e" d="M 540.5,136.5 C 543.715,148.339 546.881,160.339 550,172.5C 554.195,183.888 559.195,194.888 565,205.5C 566.461,209.811 567.794,214.145 569,218.5C 571.613,254.858 574.613,291.191 578,327.5C 578.687,336.856 578.521,346.189 577.5,355.5C 576.258,362.294 574.592,368.961 572.5,375.5C 559.681,390.817 544.348,402.983 526.5,412C 514.432,417.875 502.432,417.875 490.5,412C 485.365,407.567 481.865,402.067 480,395.5C 478.74,381.984 479.74,368.651 483,355.5C 501.29,291.672 518.957,227.672 536,163.5C 537.287,154.444 538.787,145.444 540.5,136.5 Z"/></g>
<g><path style="opacity:0.839" fill="#3d3f3e" d="M 932.5,157.5 C 932.144,165.876 931.31,174.209 930,182.5C 925.304,206.814 920.804,231.147 916.5,255.5C 916.413,228.964 919.579,202.631 926,176.5C 927.7,169.898 929.866,163.565 932.5,157.5 Z"/></g>
<g><path style="opacity:1" fill="#ee7a1f" d="M 917.5,168.5 C 912.495,184.178 908.662,200.178 906,216.5C 901.51,250.928 897.677,285.428 894.5,320C 895.234,331.936 896.401,343.769 898,355.5C 894.349,353.267 890.849,350.934 887.5,348.5C 888.097,348.265 888.43,347.765 888.5,347C 886.952,341.297 886.285,335.464 886.5,329.5C 887.608,304.163 887.775,278.83 887,253.5C 890.275,232.066 895.275,211.066 902,190.5C 904.423,184.643 907.589,179.31 911.5,174.5C 913.167,172.167 915.167,170.167 917.5,168.5 Z"/></g>
<g><path style="opacity:1" fill="#f4911e" d="M 911.5,174.5 C 907.589,179.31 904.423,184.643 902,190.5C 895.275,211.066 890.275,232.066 887,253.5C 887.775,278.83 887.608,304.163 886.5,329.5C 886.285,335.464 886.952,341.297 888.5,347C 888.43,347.765 888.097,348.265 887.5,348.5C 885.228,347.559 883.228,346.226 881.5,344.5C 875.526,330.42 870.026,316.086 865,301.5C 860.272,291.044 855.272,280.711 850,270.5C 845.025,259.673 843.025,248.339 844,236.5C 848.084,221.08 856.251,208.246 868.5,198C 881.958,188.604 896.291,180.77 911.5,174.5 Z"/></g>
<g><path style="opacity:1" fill="#2d2e2d" d="M 854.5,336.5 C 857.297,338.795 859.964,341.295 862.5,344C 883.767,358.455 904.434,373.622 924.5,389.5C 923.833,392.167 923.167,394.833 922.5,397.5C 921.662,397.842 921.328,398.508 921.5,399.5C 905.889,389.688 890.223,379.855 874.5,370C 863.86,361.196 857.193,350.029 854.5,336.5 Z"/></g>
<g><path style="opacity:0.99" fill="#231f20" d="M 443.5,374.5 C 445.167,374.5 446.833,374.5 448.5,374.5C 447.971,392.244 448.638,409.911 450.5,427.5C 444.167,427.5 437.833,427.5 431.5,427.5C 431.5,431.167 431.5,434.833 431.5,438.5C 303.63,474.25 204.13,547.916 133,659.5C 64.7443,772.357 43.0777,893.691 68,1023.5C 83.7019,1099.55 115.035,1168.22 162,1229.5C 163.98,1231.9 166.147,1233.9 168.5,1235.5C 168.351,1236.55 168.517,1237.55 169,1238.5C 174.967,1245.5 181.134,1252.17 187.5,1258.5C 215.172,1290.85 246.839,1318.51 282.5,1341.5C 314.216,1363.03 348.216,1380.36 384.5,1393.5C 453.747,1419.94 525.413,1430.11 599.5,1424C 606.922,1423.49 614.256,1422.66 621.5,1421.5C 655.215,1417.27 688.215,1409.94 720.5,1399.5C 737.155,1393.62 753.488,1386.95 769.5,1379.5C 788.904,1370.74 807.571,1360.74 825.5,1349.5C 833.726,1344.78 841.56,1339.45 849,1333.5C 849.5,1325.51 849.666,1317.51 849.5,1309.5C 850.329,1316.99 850.829,1324.66 851,1332.5C 964.885,1248.82 1033.55,1136.82 1057,996.5C 1064.23,947.827 1064.23,899.161 1057,850.5C 1056.62,849.944 1056.12,849.611 1055.5,849.5C 1056.72,846.89 1056.72,844.223 1055.5,841.5C 1058.22,831.399 1062.05,821.733 1067,812.5C 1069.15,805.883 1070.99,799.217 1072.5,792.5C 1077.28,789.884 1082.28,787.718 1087.5,786C 1091.97,782.535 1096.13,778.702 1100,774.5C 1101.6,777.422 1102.77,780.422 1103.5,783.5C 1137.38,922.423 1122.21,1055.76 1058,1183.5C 1017.73,1258.61 963.567,1321.94 895.5,1373.5C 893.596,1373.74 892.262,1374.74 891.5,1376.5C 870.229,1390.81 848.562,1404.64 826.5,1418C 812.111,1424.74 797.777,1431.57 783.5,1438.5C 772.074,1442.92 760.574,1447.25 749,1451.5C 747.97,1451.84 747.47,1452.5 747.5,1453.5C 734.77,1456.19 722.436,1459.86 710.5,1464.5C 705.88,1464.74 701.547,1465.74 697.5,1467.5C 661.032,1476.74 624.032,1482.41 586.5,1484.5C 568.833,1484.5 551.167,1484.5 533.5,1484.5C 352.984,1471.68 209.151,1393.01 102,1248.5C 40.9239,1161.11 6.75721,1064.11 -0.5,957.5C -0.5,934.833 -0.5,912.167 -0.5,889.5C 14.4533,710.368 94.1199,568.201 238.5,463C 300.667,419.651 369.001,390.151 443.5,374.5 Z"/></g>
<g><path style="opacity:1" fill="#f4911e" d="M 840.5,427.5 C 817.833,427.5 795.167,427.5 772.5,427.5C 767.068,411.182 772.068,399.015 787.5,391C 793.466,387.734 799.799,385.567 806.5,384.5C 829.956,389.019 841.29,403.352 840.5,427.5 Z"/></g>
<g><path style="opacity:1" fill="#ef7a1f" d="M 972.5,427.5 C 965.833,427.5 959.167,427.5 952.5,427.5C 946.199,419.363 938.532,412.863 929.5,408C 926.771,404.692 924.438,401.192 922.5,397.5C 923.167,394.833 923.833,392.167 924.5,389.5C 925.458,389.047 926.292,388.381 927,387.5C 942.953,399.954 958.12,413.287 972.5,427.5 Z"/></g>
<g><path style="opacity:1" fill="#2c2e2d" d="M 466.5,396.5 C 470.164,400.847 473.498,405.513 476.5,410.5C 477.991,411.244 479.491,411.91 481,412.5C 483.941,417.933 487.441,422.933 491.5,427.5C 483.833,427.5 476.167,427.5 468.5,427.5C 467.502,417.19 466.836,406.856 466.5,396.5 Z"/></g>
<g><path style="opacity:1" fill="#f3901e" d="M 922.5,397.5 C 924.438,401.192 926.771,404.692 929.5,408C 938.532,412.863 946.199,419.363 952.5,427.5C 941.833,427.5 931.167,427.5 920.5,427.5C 916.399,418.036 916.732,408.703 921.5,399.5C 921.328,398.508 921.662,397.842 922.5,397.5 Z"/></g>
<g><path style="opacity:0.996" fill="#e33d32" d="M 450.5,427.5 C 456.5,427.5 462.5,427.5 468.5,427.5C 476.167,427.5 483.833,427.5 491.5,427.5C 585.167,427.5 678.833,427.5 772.5,427.5C 795.167,427.5 817.833,427.5 840.5,427.5C 867.167,427.5 893.833,427.5 920.5,427.5C 931.167,427.5 941.833,427.5 952.5,427.5C 959.167,427.5 965.833,427.5 972.5,427.5C 980.167,427.5 987.833,427.5 995.5,427.5C 1055.17,427.5 1114.83,427.5 1174.5,427.5C 1174.5,450.5 1174.5,473.5 1174.5,496.5C 1163.17,496.5 1151.83,496.5 1140.5,496.5C 1140.5,507.833 1140.5,519.167 1140.5,530.5C 1129.17,530.5 1117.83,530.5 1106.5,530.5C 1106.5,541.5 1106.5,552.5 1106.5,563.5C 1095.17,563.5 1083.83,563.5 1072.5,563.5C 1072.5,569.833 1072.5,576.167 1072.5,582.5C 1064.06,576.575 1055.73,570.409 1047.5,564C 1055.49,563.5 1063.49,563.334 1071.5,563.5C 1071.5,552.167 1071.5,540.833 1071.5,529.5C 1082.83,529.5 1094.17,529.5 1105.5,529.5C 1105.5,518.167 1105.5,506.833 1105.5,495.5C 1116.83,495.5 1128.17,495.5 1139.5,495.5C 1139.5,484.167 1139.5,472.833 1139.5,461.5C 1073.5,461.5 1007.5,461.5 941.5,461.5C 926.167,461.5 910.833,461.5 895.5,461.5C 895.5,472.833 895.5,484.167 895.5,495.5C 884.167,495.5 872.833,495.5 861.5,495.5C 861.828,507.012 861.495,518.346 860.5,529.5C 860.5,518.167 860.5,506.833 860.5,495.5C 860.5,484.167 860.5,472.833 860.5,461.5C 776.167,461.5 691.833,461.5 607.5,461.5C 607.5,472.833 607.5,484.167 607.5,495.5C 596.167,495.5 584.833,495.5 573.5,495.5C 573.5,484.167 573.5,472.833 573.5,461.5C 540.5,461.5 507.5,461.5 474.5,461.5C 467.5,461.5 460.5,461.5 453.5,461.5C 446.167,461.5 438.833,461.5 431.5,461.5C 431.5,453.833 431.5,446.167 431.5,438.5C 431.5,434.833 431.5,431.167 431.5,427.5C 437.833,427.5 444.167,427.5 450.5,427.5 Z"/></g>
<g><path style="opacity:1" fill="#96c2e7" d="M 431.5,438.5 C 431.5,446.167 431.5,453.833 431.5,461.5C 438.833,461.5 446.167,461.5 453.5,461.5C 460.121,497.621 461.288,533.955 457,570.5C 452.153,601.886 444.487,632.553 434,662.5C 420.701,689.814 407.368,717.147 394,744.5C 376.886,783.175 360.553,822.175 345,861.5C 330.921,861.636 318.588,866.303 308,875.5C 303.333,881.5 298.667,887.5 294,893.5C 283.885,911.397 274.551,929.73 266,948.5C 264.038,953.005 263.371,957.672 264,962.5C 270.013,976.661 277.846,989.661 287.5,1001.5C 253.458,1075.59 216.292,1147.92 176,1218.5C 172.938,1223.95 170.438,1229.62 168.5,1235.5C 166.147,1233.9 163.98,1231.9 162,1229.5C 115.035,1168.22 83.7019,1099.55 68,1023.5C 43.0777,893.691 64.7443,772.357 133,659.5C 204.13,547.916 303.63,474.25 431.5,438.5 Z"/></g>
<g><path style="opacity:0.999" fill="#090909" d="M 453.5,461.5 C 460.5,461.5 467.5,461.5 474.5,461.5C 474.5,461.833 474.5,462.167 474.5,462.5C 484.521,513.042 483.354,563.376 471,613.5C 465.268,633.695 458.935,653.695 452,673.5C 412.663,763.511 374.497,854.011 337.5,945C 339.154,947.987 341.487,950.321 344.5,952C 373.563,971.204 403.896,988.371 435.5,1003.5C 481.032,1026.51 529.032,1042.01 579.5,1050C 629.578,1056.43 679.245,1054.27 728.5,1043.5C 742.165,1040.25 754.999,1034.92 767,1027.5C 767.257,1024.98 766.59,1022.65 765,1020.5C 757.26,1009.52 750.426,998.016 744.5,986C 744.767,982.836 746.433,981.836 749.5,983C 751.549,985.593 753.715,988.093 756,990.5C 760.678,971.966 766.845,953.966 774.5,936.5C 776.438,932.957 778.105,929.29 779.5,925.5C 791.423,902.489 803.757,879.656 816.5,857C 788.919,853.173 761.253,852.173 733.5,854C 715.93,856.345 698.43,859.178 681,862.5C 679.014,862.431 677.514,861.765 676.5,860.5C 678.942,858.774 681.609,857.274 684.5,856C 728.292,842.954 772.959,838.621 818.5,843C 833.856,845.06 849.19,847.226 864.5,849.5C 896.857,856.938 929.523,863.438 962.5,869C 1020.41,875.404 1054.74,850.07 1065.5,793C 1062.67,790.167 1059.83,787.333 1057,784.5C 1042.1,793.433 1025.94,797.766 1008.5,797.5C 976.571,795.311 945.071,790.311 914,782.5C 910.585,786.083 907.751,790.083 905.5,794.5C 900.61,802.072 895.277,809.405 889.5,816.5C 885.481,819.293 881.981,818.626 879,814.5C 872.62,805.072 868.453,794.738 866.5,783.5C 866.5,779.5 866.5,775.5 866.5,771.5C 805.623,757.304 743.957,751.971 681.5,755.5C 681.5,754.167 681.5,752.833 681.5,751.5C 719.038,745.918 756.705,745.084 794.5,749C 856.194,760.006 917.861,771.006 979.5,782C 991.744,784.09 1004.08,784.924 1016.5,784.5C 1021.94,784.38 1027.27,783.546 1032.5,782C 1040.62,779.439 1048.62,776.605 1056.5,773.5C 1057.5,773.667 1058.5,773.833 1059.5,774C 1062.5,778.333 1066.17,782 1070.5,785C 1073.7,785.805 1076.7,785.638 1079.5,784.5C 1085.7,783.824 1090.53,780.824 1094,775.5C 1099.84,763.801 1106.68,752.801 1114.5,742.5C 1119.58,737.082 1123.91,731.082 1127.5,724.5C 1128.7,721.574 1129.7,718.574 1130.5,715.5C 1131.91,713.775 1132.41,711.775 1132,709.5C 1129.33,706.167 1126.67,702.833 1124,699.5C 1118.62,691.22 1119.45,683.886 1126.5,677.5C 1135.22,672.548 1144.56,671.215 1154.5,673.5C 1155.51,671.163 1155.35,668.83 1154,666.5C 1151.37,660.728 1147.87,655.561 1143.5,651C 1130.98,640.916 1118.32,631.083 1105.5,621.5C 1075.87,597.044 1045.2,573.878 1013.5,552C 1004.96,544.622 996.293,537.455 987.5,530.5C 982.17,524.337 976.337,518.671 970,513.5C 960.077,499.998 951.41,485.664 944,470.5C 942.855,467.568 942.022,464.568 941.5,461.5C 1007.5,461.5 1073.5,461.5 1139.5,461.5C 1139.5,472.833 1139.5,484.167 1139.5,495.5C 1128.17,495.5 1116.83,495.5 1105.5,495.5C 1105.5,506.833 1105.5,518.167 1105.5,529.5C 1094.17,529.5 1082.83,529.5 1071.5,529.5C 1071.5,540.833 1071.5,552.167 1071.5,563.5C 1063.49,563.334 1055.49,563.5 1047.5,564C 1055.73,570.409 1064.06,576.575 1072.5,582.5C 1095.12,600.277 1118.45,617.11 1142.5,633C 1151.56,640.385 1158.73,649.218 1164,659.5C 1168.2,672.505 1166.2,684.505 1158,695.5C 1154,699.5 1150,703.5 1146,707.5C 1143.93,717.124 1140.93,726.457 1137,735.5C 1131,742.833 1125,750.167 1119,757.5C 1114.56,766.726 1109.4,775.393 1103.5,783.5C 1102.77,780.422 1101.6,777.422 1100,774.5C 1096.13,778.702 1091.97,782.535 1087.5,786C 1082.28,787.718 1077.28,789.884 1072.5,792.5C 1070.99,799.217 1069.15,805.883 1067,812.5C 1062.05,821.733 1058.22,831.399 1055.5,841.5C 1056.72,844.223 1056.72,846.89 1055.5,849.5C 1040.88,869.15 1021.21,879.984 996.5,882C 982.138,882.797 967.805,882.464 953.5,881C 924.138,875.461 894.805,869.794 865.5,864C 852.901,861.485 840.234,859.819 827.5,859C 819.682,872.135 812.515,885.635 806,899.5C 795.873,924.047 786.04,948.714 776.5,973.5C 785.759,974.642 794.425,977.475 802.5,982C 805.762,984.592 808.262,987.759 810,991.5C 812.5,997.333 814.5,1003.33 816,1009.5C 818.289,1027.93 821.455,1046.1 825.5,1064C 825.142,1066.03 824.308,1067.87 823,1069.5C 819.328,1072.34 815.828,1075.34 812.5,1078.5C 826.058,1109.79 831.558,1142.46 829,1176.5C 827.153,1195.81 826.153,1215.14 826,1234.5C 839.971,1257.58 847.804,1282.58 849.5,1309.5C 849.666,1317.51 849.5,1325.51 849,1333.5C 841.56,1339.45 833.726,1344.78 825.5,1349.5C 828.102,1327.82 828.102,1306.15 825.5,1284.5C 823.572,1275.71 821.072,1267.04 818,1258.5C 813.44,1248.72 809.44,1238.72 806,1228.5C 806.047,1202.47 806.713,1176.47 808,1150.5C 807.114,1130.18 803.114,1110.51 796,1091.5C 784.65,1100.26 772.484,1107.59 759.5,1113.5C 750.335,1116.78 741.002,1119.44 731.5,1121.5C 725.269,1118.06 718.602,1115.72 711.5,1114.5C 692.203,1111.64 676.536,1117.98 664.5,1133.5C 637.03,1135.55 609.697,1134.38 582.5,1130C 549.425,1124.98 517.091,1116.98 485.5,1106C 462.28,1097.65 439.28,1088.82 416.5,1079.5C 381.81,1066.99 349.144,1050.49 318.5,1030C 314.333,1026.5 310.167,1023 306,1019.5C 273.571,1095.03 237.904,1169.03 199,1241.5C 195.652,1247.54 191.818,1253.21 187.5,1258.5C 181.134,1252.17 174.967,1245.5 169,1238.5C 168.517,1237.55 168.351,1236.55 168.5,1235.5C 170.438,1229.62 172.938,1223.95 176,1218.5C 216.292,1147.92 253.458,1075.59 287.5,1001.5C 277.846,989.661 270.013,976.661 264,962.5C 263.371,957.672 264.038,953.005 266,948.5C 274.551,929.73 283.885,911.397 294,893.5C 298.667,887.5 303.333,881.5 308,875.5C 318.588,866.303 330.921,861.636 345,861.5C 360.553,822.175 376.886,783.175 394,744.5C 407.368,717.147 420.701,689.814 434,662.5C 444.487,632.553 452.153,601.886 457,570.5C 461.288,533.955 460.121,497.621 453.5,461.5 Z"/></g>
<g><path style="opacity:1" fill="#2c2e2d" d="M 474.5,462.5 C 493.167,462.5 511.833,462.5 530.5,462.5C 534.463,466.964 538.63,471.298 543,475.5C 552.164,488.735 555.497,503.402 553,519.5C 551.137,531.567 547.804,543.234 543,554.5C 533.136,574.229 523.803,594.229 515,614.5C 511.862,631.037 510.862,647.704 512,664.5C 517.27,715.98 528.937,765.98 547,814.5C 552.683,826.531 558.35,838.531 564,850.5C 565.854,858.666 563.521,860.333 557,855.5C 549.386,844.618 541.053,834.284 532,824.5C 518.819,803.794 509.153,781.46 503,757.5C 499.358,743.653 496.358,729.653 494,715.5C 488.689,710.854 482.523,709.354 475.5,711C 471.469,712.432 467.636,714.266 464,716.5C 456.935,730.99 454.102,746.323 455.5,762.5C 455.667,768.833 455.833,775.167 456,781.5C 465.814,823.941 479.814,864.941 498,904.5C 511.682,930.531 525.348,956.531 539,982.5C 541.299,986.896 542.466,991.562 542.5,996.5C 541.448,996.649 540.448,996.483 539.5,996C 525.02,983.51 512.52,969.344 502,953.5C 497.867,948.366 493.367,943.532 488.5,939C 476.773,934.255 466.273,936.088 457,944.5C 448.937,963.857 441.77,983.523 435.5,1003.5C 403.896,988.371 373.563,971.204 344.5,952C 341.487,950.321 339.154,947.987 337.5,945C 374.497,854.011 412.663,763.511 452,673.5C 458.935,653.695 465.268,633.695 471,613.5C 483.354,563.376 484.521,513.042 474.5,462.5 Z"/></g>
<g><path style="opacity:1" fill="#404240" d="M 941.5,461.5 C 942.022,464.568 942.855,467.568 944,470.5C 951.41,485.664 960.077,499.998 970,513.5C 976.337,518.671 982.17,524.337 987.5,530.5C 981.757,535.148 977.923,541.148 976,548.5C 975.333,556.833 975.333,565.167 976,573.5C 981.688,592.207 990.022,609.54 1001,625.5C 1005.09,636.713 1010.93,646.713 1018.5,655.5C 1017.53,674.375 1023.86,690.209 1037.5,703C 1045.92,708.863 1055.26,712.03 1065.5,712.5C 1086.15,720.937 1107.15,721.604 1128.5,714.5C 1129.42,714.543 1130.08,714.876 1130.5,715.5C 1129.7,718.574 1128.7,721.574 1127.5,724.5C 1121.24,728.463 1114.57,731.63 1107.5,734C 1104.25,734.791 1101.25,734.291 1098.5,732.5C 1072.2,742.919 1049.53,737.919 1030.5,717.5C 1028.68,713.855 1026.84,710.189 1025,706.5C 1016.33,697.167 1007.67,687.833 999,678.5C 995.115,670.729 991.781,662.729 989,654.5C 983.652,643.484 975.819,634.651 965.5,628C 957.65,621.796 952.15,613.962 949,604.5C 947.661,594.099 945.994,583.765 944,573.5C 940.647,564.485 934.147,559.652 924.5,559C 911.833,558.333 899.167,558.333 886.5,559C 874.161,566.838 861.494,574.172 848.5,581C 806.23,597.151 762.563,607.484 717.5,612C 694.846,616.998 672.013,620.831 649,623.5C 636.12,623.605 623.953,620.772 612.5,615C 604.068,609.385 600.902,601.552 603,591.5C 607.178,581.966 610.345,572.133 612.5,562C 610.788,544.284 601.122,537.618 583.5,542C 548.953,553.58 534.786,577.413 541,613.5C 547.65,634.81 554.316,656.143 561,677.5C 563.641,698.559 566.641,719.559 570,740.5C 573.269,750.974 576.936,761.307 581,771.5C 590.304,789.749 598.637,808.416 606,827.5C 610.866,844.357 615.199,861.357 619,878.5C 626.697,905.933 637.697,931.933 652,956.5C 658.71,968.542 667.544,978.708 678.5,987C 693.976,996.55 709.643,996.883 725.5,988C 729.992,985.002 734.325,981.835 738.5,978.5C 725.081,998.523 721.748,1020.19 728.5,1043.5C 679.245,1054.27 629.578,1056.43 579.5,1050C 529.032,1042.01 481.032,1026.51 435.5,1003.5C 441.77,983.523 448.937,963.857 457,944.5C 466.273,936.088 476.773,934.255 488.5,939C 493.367,943.532 497.867,948.366 502,953.5C 512.52,969.344 525.02,983.51 539.5,996C 540.448,996.483 541.448,996.649 542.5,996.5C 542.466,991.562 541.299,986.896 539,982.5C 525.348,956.531 511.682,930.531 498,904.5C 479.814,864.941 465.814,823.941 456,781.5C 455.833,775.167 455.667,768.833 455.5,762.5C 454.102,746.323 456.935,730.99 464,716.5C 467.636,714.266 471.469,712.432 475.5,711C 482.523,709.354 488.689,710.854 494,715.5C 496.358,729.653 499.358,743.653 503,757.5C 509.153,781.46 518.819,803.794 532,824.5C 541.053,834.284 549.386,844.618 557,855.5C 563.521,860.333 565.854,858.666 564,850.5C 558.35,838.531 552.683,826.531 547,814.5C 528.937,765.98 517.27,715.98 512,664.5C 510.862,647.704 511.862,631.037 515,614.5C 523.803,594.229 533.136,574.229 543,554.5C 547.804,543.234 551.137,531.567 553,519.5C 555.497,503.402 552.164,488.735 543,475.5C 538.63,471.298 534.463,466.964 530.5,462.5C 544.5,462.5 558.5,462.5 572.5,462.5C 572.172,473.679 572.505,484.679 573.5,495.5C 584.833,495.5 596.167,495.5 607.5,495.5C 607.5,506.833 607.5,518.167 607.5,529.5C 618.833,529.5 630.167,529.5 641.5,529.5C 641.5,540.833 641.5,552.167 641.5,563.5C 652.833,563.5 664.167,563.5 675.5,563.5C 675.5,574.5 675.5,585.5 675.5,596.5C 714.663,597.499 753.996,597.832 793.5,597.5C 793.5,586.167 793.5,574.833 793.5,563.5C 804.833,563.5 816.167,563.5 827.5,563.5C 827.5,552.167 827.5,540.833 827.5,529.5C 838.5,529.5 849.5,529.5 860.5,529.5C 861.495,518.346 861.828,507.012 861.5,495.5C 872.833,495.5 884.167,495.5 895.5,495.5C 895.5,484.167 895.5,472.833 895.5,461.5C 910.833,461.5 926.167,461.5 941.5,461.5 Z"/></g>
<g><path style="opacity:1" fill="#503c3a" d="M 474.5,462.5 C 474.5,462.167 474.5,461.833 474.5,461.5C 507.5,461.5 540.5,461.5 573.5,461.5C 573.5,472.833 573.5,484.167 573.5,495.5C 572.505,484.679 572.172,473.679 572.5,462.5C 558.5,462.5 544.5,462.5 530.5,462.5C 511.833,462.5 493.167,462.5 474.5,462.5 Z"/></g>
<g><path style="opacity:1" fill="#070808" d="M 860.5,495.5 C 849.5,495.5 838.5,495.5 827.5,495.5C 826.505,506.321 826.172,517.321 826.5,528.5C 815.321,528.172 804.321,528.505 793.5,529.5C 792.505,540.321 792.172,551.321 792.5,562.5C 753.5,562.5 714.5,562.5 675.5,562.5C 675.5,551.5 675.5,540.5 675.5,529.5C 664.167,529.5 652.833,529.5 641.5,529.5C 630.167,529.5 618.833,529.5 607.5,529.5C 607.5,518.167 607.5,506.833 607.5,495.5C 607.5,484.167 607.5,472.833 607.5,461.5C 691.833,461.5 776.167,461.5 860.5,461.5C 860.5,472.833 860.5,484.167 860.5,495.5 Z"/></g>
<g><path style="opacity:1" fill="#fcfcfc" d="M 1071.5,476.5 C 1077.17,476.5 1082.83,476.5 1088.5,476.5C 1088.5,482.167 1088.5,487.833 1088.5,493.5C 1082.83,493.5 1077.17,493.5 1071.5,493.5C 1071.5,487.833 1071.5,482.167 1071.5,476.5 Z"/></g>
<g><path style="opacity:1" fill="#a5a5a5" d="M 1071.5,476.5 C 1077.31,475.51 1083.31,475.177 1089.5,475.5C 1089.82,481.69 1089.49,487.69 1088.5,493.5C 1088.5,487.833 1088.5,482.167 1088.5,476.5C 1082.83,476.5 1077.17,476.5 1071.5,476.5 Z"/></g>
<g><path style="opacity:1" fill="#f8f8f8" d="M 780.5,484.5 C 786.167,484.5 791.833,484.5 797.5,484.5C 797.5,490.5 797.5,496.5 797.5,502.5C 791.833,502.5 786.167,502.5 780.5,502.5C 780.5,496.5 780.5,490.5 780.5,484.5 Z"/></g>
<g><path style="opacity:1" fill="#fefffe" d="M 1071.5,493.5 C 1071.5,499.167 1071.5,504.833 1071.5,510.5C 1065.83,510.5 1060.17,510.5 1054.5,510.5C 1054.5,504.833 1054.5,499.167 1054.5,493.5C 1060.17,493.5 1065.83,493.5 1071.5,493.5 Z"/></g>
<g><path style="opacity:1" fill="#e23d32" d="M 607.5,495.5 C 618.833,495.5 630.167,495.5 641.5,495.5C 641.5,506.833 641.5,518.167 641.5,529.5C 641.5,518.167 641.5,506.833 641.5,495.5C 630.167,495.5 618.833,495.5 607.5,495.5 Z"/></g>
<g><path style="opacity:1" fill="#e33d32" d="M 827.5,495.5 C 838.5,495.5 849.5,495.5 860.5,495.5C 860.5,506.833 860.5,518.167 860.5,529.5C 849.5,529.5 838.5,529.5 827.5,529.5C 827.5,518.167 827.5,506.833 827.5,495.5 Z"/></g>
<g><path style="opacity:1" fill="#fefffe" d="M 762.5,502.5 C 768.167,502.5 773.833,502.5 779.5,502.5C 779.5,508.167 779.5,513.833 779.5,519.5C 779.5,513.833 779.5,508.167 779.5,502.5C 773.833,502.5 768.167,502.5 762.5,502.5 Z"/></g>
<g><path style="opacity:1" fill="#7b7b7b" d="M 780.5,484.5 C 780.5,490.5 780.5,496.5 780.5,502.5C 780.822,508.358 780.489,514.025 779.5,519.5C 779.5,513.833 779.5,508.167 779.5,502.5C 773.833,502.5 768.167,502.5 762.5,502.5C 767.975,501.511 773.642,501.178 779.5,501.5C 779.178,495.642 779.511,489.975 780.5,484.5 Z"/></g>
<g><path style="opacity:1" fill="#551b17" d="M 827.5,495.5 C 827.5,506.833 827.5,518.167 827.5,529.5C 827.167,529.5 826.833,529.5 826.5,529.5C 815.5,529.5 804.5,529.5 793.5,529.5C 804.321,528.505 815.321,528.172 826.5,528.5C 826.172,517.321 826.505,506.321 827.5,495.5 Z"/></g>
<g><path style="opacity:1" fill="#e33d32" d="M 641.5,529.5 C 652.833,529.5 664.167,529.5 675.5,529.5C 675.5,540.5 675.5,551.5 675.5,562.5C 675.5,562.833 675.5,563.167 675.5,563.5C 664.167,563.5 652.833,563.5 641.5,563.5C 641.5,552.167 641.5,540.833 641.5,529.5 Z"/></g>
<g><path style="opacity:1" fill="#e33e32" d="M 793.5,529.5 C 804.5,529.5 815.5,529.5 826.5,529.5C 826.5,540.5 826.5,551.5 826.5,562.5C 815.5,562.5 804.5,562.5 793.5,562.5C 793.5,551.5 793.5,540.5 793.5,529.5 Z"/></g>
<g><path style="opacity:1" fill="#272929" d="M 987.5,530.5 C 996.293,537.455 1004.96,544.622 1013.5,552C 1045.2,573.878 1075.87,597.044 1105.5,621.5C 1111.4,629.053 1117.9,636.72 1125,644.5C 1128.83,649.497 1132.17,654.83 1135,660.5C 1135.67,662.833 1135.67,665.167 1135,667.5C 1131.56,670.432 1128.72,673.765 1126.5,677.5C 1119.45,683.886 1118.62,691.22 1124,699.5C 1126.67,702.833 1129.33,706.167 1132,709.5C 1132.41,711.775 1131.91,713.775 1130.5,715.5C 1130.08,714.876 1129.42,714.543 1128.5,714.5C 1107.15,721.604 1086.15,720.937 1065.5,712.5C 1076.63,712.512 1086.8,709.512 1096,703.5C 1103.14,696.414 1105.14,688.08 1102,678.5C 1099.83,677.269 1097.67,676.269 1095.5,675.5C 1075.39,670.379 1055.72,672.046 1036.5,680.5C 1035.7,680.957 1035.37,681.624 1035.5,682.5C 1033.07,680.508 1030.91,678.175 1029,675.5C 1026.03,668.95 1023.36,662.283 1021,655.5C 1020.02,654.226 1019.19,654.226 1018.5,655.5C 1010.93,646.713 1005.09,636.713 1001,625.5C 990.022,609.54 981.688,592.207 976,573.5C 975.333,565.167 975.333,556.833 976,548.5C 977.923,541.148 981.757,535.148 987.5,530.5 Z"/></g>
<g><path style="opacity:1" fill="#f5911e" d="M 1030.5,717.5 C 1029.96,717.56 1029.62,717.893 1029.5,718.5C 1041,733.654 1041.5,749.321 1031,765.5C 1026.64,772.223 1021.81,778.556 1016.5,784.5C 1004.08,784.924 991.744,784.09 979.5,782C 917.861,771.006 856.194,760.006 794.5,749C 756.705,745.084 719.038,745.918 681.5,751.5C 681.5,752.833 681.5,754.167 681.5,755.5C 680.113,757.489 680.447,759.322 682.5,761C 700.175,761.438 717.842,762.104 735.5,763C 757.118,765.22 778.784,766.886 800.5,768C 822.636,772.726 844.636,777.893 866.5,783.5C 868.453,794.738 872.62,805.072 879,814.5C 881.981,818.626 885.481,819.293 889.5,816.5C 895.277,809.405 900.61,802.072 905.5,794.5C 925.339,797.877 945.006,802.043 964.5,807C 977.205,808.815 989.872,810.815 1002.5,813C 1009.5,813.333 1016.5,813.667 1023.5,814C 1035.5,818.298 1046.83,817.131 1057.5,810.5C 1056.51,816.848 1054.01,822.848 1050,828.5C 1040,843.254 1026.17,852.087 1008.5,855C 994.642,858.054 980.642,859.054 966.5,858C 940.55,854.293 914.55,850.96 888.5,848C 880.414,847.239 872.414,847.739 864.5,849.5C 849.19,847.226 833.856,845.06 818.5,843C 772.959,838.621 728.292,842.954 684.5,856C 681.609,857.274 678.942,858.774 676.5,860.5C 674.193,861.653 671.86,862.82 669.5,864C 696.345,866.304 722.012,872.97 746.5,884C 758.05,894.55 768.55,906.05 778,918.5C 778.977,920.74 779.477,923.073 779.5,925.5C 778.105,929.29 776.438,932.957 774.5,936.5C 768.197,944.315 762.03,952.315 756,960.5C 750.635,967.031 744.802,973.031 738.5,978.5C 734.325,981.835 729.992,985.002 725.5,988C 709.643,996.883 693.976,996.55 678.5,987C 667.544,978.708 658.71,968.542 652,956.5C 637.697,931.933 626.697,905.933 619,878.5C 615.199,861.357 610.866,844.357 606,827.5C 598.637,808.416 590.304,789.749 581,771.5C 576.936,761.307 573.269,750.974 570,740.5C 566.641,719.559 563.641,698.559 561,677.5C 554.316,656.143 547.65,634.81 541,613.5C 534.786,577.413 548.953,553.58 583.5,542C 601.122,537.618 610.788,544.284 612.5,562C 610.345,572.133 607.178,581.966 603,591.5C 600.902,601.552 604.068,609.385 612.5,615C 623.953,620.772 636.12,623.605 649,623.5C 672.013,620.831 694.846,616.998 717.5,612C 762.563,607.484 806.23,597.151 848.5,581C 861.494,574.172 874.161,566.838 886.5,559C 899.167,558.333 911.833,558.333 924.5,559C 934.147,559.652 940.647,564.485 944,573.5C 945.994,583.765 947.661,594.099 949,604.5C 952.15,613.962 957.65,621.796 965.5,628C 975.819,634.651 983.652,643.484 989,654.5C 991.781,662.729 995.115,670.729 999,678.5C 1007.67,687.833 1016.33,697.167 1025,706.5C 1026.84,710.189 1028.68,713.855 1030.5,717.5 Z"/></g>
<g><path style="opacity:1" fill="#571b17" d="M 793.5,529.5 C 793.5,540.5 793.5,551.5 793.5,562.5C 793.5,562.833 793.5,563.167 793.5,563.5C 793.167,563.5 792.833,563.5 792.5,563.5C 753.5,563.5 714.5,563.5 675.5,563.5C 675.5,563.167 675.5,562.833 675.5,562.5C 714.5,562.5 753.5,562.5 792.5,562.5C 792.172,551.321 792.505,540.321 793.5,529.5 Z"/></g>
<g><path style="opacity:1" fill="#b33e36" d="M 826.5,529.5 C 826.833,529.5 827.167,529.5 827.5,529.5C 827.5,540.833 827.5,552.167 827.5,563.5C 816.167,563.5 804.833,563.5 793.5,563.5C 793.5,563.167 793.5,562.833 793.5,562.5C 804.5,562.5 815.5,562.5 826.5,562.5C 826.5,551.5 826.5,540.5 826.5,529.5 Z"/></g>
<g><path style="opacity:1" fill="#e33e32" d="M 675.5,563.5 C 714.5,563.5 753.5,563.5 792.5,563.5C 792.5,574.5 792.5,585.5 792.5,596.5C 753.5,596.5 714.5,596.5 675.5,596.5C 675.5,585.5 675.5,574.5 675.5,563.5 Z"/></g>
<g><path style="opacity:1" fill="#aa3f37" d="M 792.5,563.5 C 792.833,563.5 793.167,563.5 793.5,563.5C 793.5,574.833 793.5,586.167 793.5,597.5C 753.996,597.832 714.663,597.499 675.5,596.5C 714.5,596.5 753.5,596.5 792.5,596.5C 792.5,585.5 792.5,574.5 792.5,563.5 Z"/></g>
<g><path style="opacity:1" fill="#f37c1f" d="M 863.5,596.5 C 881.981,595.716 898.315,601.216 912.5,613C 933.535,633.691 952.702,655.858 970,679.5C 977.5,690.832 982.5,703.165 985,716.5C 986.886,735.895 979.386,750.395 962.5,760C 948.087,767.768 932.753,770.434 916.5,768C 909.427,767.052 902.427,765.719 895.5,764C 868.783,754.094 841.45,746.427 813.5,741C 789.552,736.792 765.552,736.459 741.5,740C 730.167,740.667 718.833,740.667 707.5,740C 686.979,737.112 670.812,727.278 659,710.5C 646.015,676.966 656.848,654.799 691.5,644C 696.139,642.872 700.805,641.872 705.5,641C 742.111,639.732 777.777,633.399 812.5,622C 827.412,609.211 844.412,600.711 863.5,596.5 Z"/></g>
<g><path style="opacity:1" fill="#f5f5f5" d="M 1105.5,621.5 C 1118.32,631.083 1130.98,640.916 1143.5,651C 1147.87,655.561 1151.37,660.728 1154,666.5C 1155.35,668.83 1155.51,671.163 1154.5,673.5C 1144.56,671.215 1135.22,672.548 1126.5,677.5C 1128.72,673.765 1131.56,670.432 1135,667.5C 1135.67,665.167 1135.67,662.833 1135,660.5C 1132.17,654.83 1128.83,649.497 1125,644.5C 1117.9,636.72 1111.4,629.053 1105.5,621.5 Z"/></g>
<g><path style="opacity:1" fill="#010101" d="M 1035.5,682.5 C 1041.49,679.561 1047.82,677.728 1054.5,677C 1068.15,676.022 1081.82,675.522 1095.5,675.5C 1097.67,676.269 1099.83,677.269 1102,678.5C 1105.14,688.08 1103.14,696.414 1096,703.5C 1086.8,709.512 1076.63,712.512 1065.5,712.5C 1055.26,712.03 1045.92,708.863 1037.5,703C 1023.86,690.209 1017.53,674.375 1018.5,655.5C 1019.19,654.226 1020.02,654.226 1021,655.5C 1023.36,662.283 1026.03,668.95 1029,675.5C 1030.91,678.175 1033.07,680.508 1035.5,682.5 Z"/></g>
<g><path style="opacity:1" fill="#d2d2d2" d="M 1095.5,675.5 C 1081.82,675.522 1068.15,676.022 1054.5,677C 1047.82,677.728 1041.49,679.561 1035.5,682.5C 1035.37,681.624 1035.7,680.957 1036.5,680.5C 1055.72,672.046 1075.39,670.379 1095.5,675.5 Z"/></g>
<g><path style="opacity:0.978" fill="#221f1f" d="M 1961.5,674.5 C 1995.15,671.108 2027.15,676.775 2057.5,691.5C 2057.83,692.167 2058.17,692.833 2058.5,693.5C 2053.62,708.269 2048.45,722.935 2043,737.5C 2042.63,738.91 2041.8,739.91 2040.5,740.5C 2018,728.139 1994,723.639 1968.5,727C 1948.83,728.982 1941.33,739.482 1946,758.5C 1947.74,762.241 1950.24,765.408 1953.5,768C 1958.17,770.667 1962.83,773.333 1967.5,776C 1983.28,781.722 1998.94,787.722 2014.5,794C 2059.77,811.02 2078.27,843.52 2070,891.5C 2064.56,915.609 2050.4,932.443 2027.5,942C 2007.7,949.534 1987.2,952.701 1966,951.5C 1935.21,952.509 1906.04,946.176 1878.5,932.5C 1878.17,931.833 1877.83,931.167 1877.5,930.5C 1882.48,914.395 1888.31,898.728 1895,883.5C 1927.12,899.953 1960.62,903.786 1995.5,895C 2007.81,887.757 2011.64,877.257 2007,863.5C 2004.92,859.421 2002.09,855.921 1998.5,853C 1992.82,849.159 1986.82,845.826 1980.5,843C 1964.76,837.196 1949.09,831.196 1933.5,825C 1885.97,803.775 1871.14,768.608 1889,719.5C 1900.56,698.952 1917.72,685.452 1940.5,679C 1947.59,677.269 1954.59,675.769 1961.5,674.5 Z"/></g>
<g><path style="opacity:0.979" fill="#221f1f" d="M 2223.5,674.5 C 2258.7,671.341 2292.03,677.674 2323.5,693.5C 2324.61,694.723 2324.78,696.056 2324,697.5C 2318.63,713.132 2312.79,728.466 2306.5,743.5C 2276.81,727.948 2245.81,724.448 2213.5,733C 2189.58,744.278 2175.41,763.111 2171,789.5C 2162.05,876.219 2200.22,910.719 2285.5,893C 2293.48,890.784 2301.15,887.784 2308.5,884C 2309.94,883.219 2311.28,883.386 2312.5,884.5C 2317.73,900.037 2323.07,915.537 2328.5,931C 2326.73,933.393 2324.39,935.059 2321.5,936C 2288.49,949.743 2254.16,954.743 2218.5,951C 2164.75,946.404 2129.59,918.571 2113,867.5C 2104.38,832.813 2104.38,798.147 2113,763.5C 2131.55,711.114 2168.38,681.447 2223.5,674.5 Z"/></g>
<g><path style="opacity:0.981" fill="#221f1f" d="M 1286.5,678.5 C 1308.19,678.122 1329.86,678.622 1351.5,680C 1374.62,682.149 1395.62,689.815 1414.5,703C 1432.94,720.4 1441.6,741.9 1440.5,767.5C 1441.36,807.647 1423.03,834.48 1385.5,848C 1370.86,852.795 1355.86,855.795 1340.5,857C 1326.17,857.694 1311.84,858.194 1297.5,858.5C 1297.5,887.833 1297.5,917.167 1297.5,946.5C 1277.17,946.5 1256.83,946.5 1236.5,946.5C 1236.5,859.167 1236.5,771.833 1236.5,684.5C 1253.25,681.989 1269.91,679.989 1286.5,678.5 Z M 1299.5,730.5 C 1312.5,730.333 1325.5,730.5 1338.5,731C 1368.77,733.589 1381.27,749.756 1376,779.5C 1373.65,788.71 1368.15,795.21 1359.5,799C 1351.43,802.101 1343.1,804.101 1334.5,805C 1322.18,805.798 1309.84,806.298 1297.5,806.5C 1296.86,780.939 1297.52,755.606 1299.5,730.5 Z"/></g>
<g><path style="opacity:0.981" fill="#221f1f" d="M 2928.5,678.5 C 2946.5,678.333 2964.5,678.5 2982.5,679C 3009.24,680.092 3033.57,688.092 3055.5,703C 3070.73,715.959 3079.23,732.459 3081,752.5C 3084.69,776.77 3079.02,798.437 3064,817.5C 3054.65,825.859 3044.48,833.026 3033.5,839C 3058.22,872.245 3079.56,907.745 3097.5,945.5C 3074.84,946.666 3052.17,946.833 3029.5,946C 3012,912.645 2992,880.979 2969.5,851C 2959.84,850.5 2950.17,850.334 2940.5,850.5C 2940.5,882.5 2940.5,914.5 2940.5,946.5C 2920.17,946.5 2899.83,946.5 2879.5,946.5C 2879.5,859.167 2879.5,771.833 2879.5,684.5C 2895.9,681.915 2912.24,679.915 2928.5,678.5 Z M 2942.5,730.5 C 2954.5,730.333 2966.5,730.5 2978.5,731C 3014.46,734.585 3025.96,753.085 3013,786.5C 3002.72,795.82 2990.56,800.653 2976.5,801C 2964.51,801.7 2952.51,802.2 2940.5,802.5C 2939.86,778.271 2940.53,754.271 2942.5,730.5 Z"/></g>
<g><path style="opacity:0.981" fill="#221f1f" d="M 1483.5,681.5 C 1503.83,681.5 1524.17,681.5 1544.5,681.5C 1544.5,769.833 1544.5,858.167 1544.5,946.5C 1524.17,946.5 1503.83,946.5 1483.5,946.5C 1483.5,858.167 1483.5,769.833 1483.5,681.5 Z"/></g>
<g><path style="opacity:0.986" fill="#221f1f" d="M 1604.5,681.5 C 1621.5,681.333 1638.5,681.5 1655.5,682C 1674.83,703.184 1693.33,725.017 1711,747.5C 1732.4,775.972 1753.07,804.972 1773,834.5C 1773.5,783.501 1773.67,732.501 1773.5,681.5C 1793.5,681.5 1813.5,681.5 1833.5,681.5C 1833.5,769.833 1833.5,858.167 1833.5,946.5C 1816.26,946.825 1799.09,946.492 1782,945.5C 1748.43,885.007 1709.43,828.341 1665,775.5C 1664.5,832.499 1664.33,889.499 1664.5,946.5C 1644.5,946.5 1624.5,946.5 1604.5,946.5C 1604.5,858.167 1604.5,769.833 1604.5,681.5 Z"/></g>
<g><path style="opacity:0.98" fill="#221f1f" d="M 2365.5,681.5 C 2385.83,681.5 2406.17,681.5 2426.5,681.5C 2426.5,715.5 2426.5,749.5 2426.5,783.5C 2459.5,783.5 2492.5,783.5 2525.5,783.5C 2525.5,749.5 2525.5,715.5 2525.5,681.5C 2545.83,681.5 2566.17,681.5 2586.5,681.5C 2586.5,769.833 2586.5,858.167 2586.5,946.5C 2566.18,947.353 2545.85,947.686 2525.5,947.5C 2525.5,910.167 2525.5,872.833 2525.5,835.5C 2492.5,835.5 2459.5,835.5 2426.5,835.5C 2426.5,872.833 2426.5,910.167 2426.5,947.5C 2406.17,947.5 2385.83,947.5 2365.5,947.5C 2365.5,858.833 2365.5,770.167 2365.5,681.5 Z"/></g>
<g><path style="opacity:0.986" fill="#221f1f" d="M 2646.5,681.5 C 2706.5,681.5 2766.5,681.5 2826.5,681.5C 2826.5,698.5 2826.5,715.5 2826.5,732.5C 2786.83,732.5 2747.17,732.5 2707.5,732.5C 2707.5,749.5 2707.5,766.5 2707.5,783.5C 2742.83,783.5 2778.17,783.5 2813.5,783.5C 2813.5,800.167 2813.5,816.833 2813.5,833.5C 2778.17,833.5 2742.83,833.5 2707.5,833.5C 2707.5,854.5 2707.5,875.5 2707.5,896.5C 2750.17,896.5 2792.83,896.5 2835.5,896.5C 2835.5,913.167 2835.5,929.833 2835.5,946.5C 2772.5,946.5 2709.5,946.5 2646.5,946.5C 2646.5,858.167 2646.5,769.833 2646.5,681.5 Z"/></g>
<g><path style="opacity:1" fill="#f07b20" d="M 1030.5,717.5 C 1049.53,737.919 1072.2,742.919 1098.5,732.5C 1101.25,734.291 1104.25,734.791 1107.5,734C 1114.57,731.63 1121.24,728.463 1127.5,724.5C 1123.91,731.082 1119.58,737.082 1114.5,742.5C 1114.44,741.957 1114.11,741.624 1113.5,741.5C 1097.44,748.722 1085.94,760.388 1079,776.5C 1078.2,779.367 1078.37,782.034 1079.5,784.5C 1076.7,785.638 1073.7,785.805 1070.5,785C 1066.17,782 1062.5,778.333 1059.5,774C 1058.5,773.833 1057.5,773.667 1056.5,773.5C 1048.62,776.605 1040.62,779.439 1032.5,782C 1027.27,783.546 1021.94,784.38 1016.5,784.5C 1021.81,778.556 1026.64,772.223 1031,765.5C 1041.5,749.321 1041,733.654 1029.5,718.5C 1029.62,717.893 1029.96,717.56 1030.5,717.5 Z"/></g>
<g><path style="opacity:1" fill="#f28f1d" d="M 1114.5,742.5 C 1106.68,752.801 1099.84,763.801 1094,775.5C 1090.53,780.824 1085.7,783.824 1079.5,784.5C 1078.37,782.034 1078.2,779.367 1079,776.5C 1085.94,760.388 1097.44,748.722 1113.5,741.5C 1114.11,741.624 1114.44,741.957 1114.5,742.5 Z"/></g>
<g><path style="opacity:1" fill="#ef7a1f" d="M 866.5,783.5 C 844.636,777.893 822.636,772.726 800.5,768C 778.784,766.886 757.118,765.22 735.5,763C 717.842,762.104 700.175,761.438 682.5,761C 680.447,759.322 680.113,757.489 681.5,755.5C 743.957,751.971 805.623,757.304 866.5,771.5C 866.5,775.5 866.5,779.5 866.5,783.5 Z"/></g>
<g><path style="opacity:1" fill="#f7f7f7" d="M 873.5,773.5 C 883.287,775.298 892.954,777.632 902.5,780.5C 896.475,788.025 890.641,795.691 885,803.5C 879.691,794.074 875.858,784.074 873.5,773.5 Z"/></g>
<g><path style="opacity:1" fill="#f37c1f" d="M 712.5,780.5 C 755.363,780.661 798.03,783.494 840.5,789C 859.707,793.475 865.54,804.642 858,822.5C 855.617,825.273 852.783,827.439 849.5,829C 842.372,831.559 835.038,833.226 827.5,834C 797.169,833.551 766.836,833.218 736.5,833C 720.031,834.434 703.698,836.767 687.5,840C 673.278,843.704 661.778,839.871 653,828.5C 646.237,806.863 653.737,792.363 675.5,785C 687.893,782.774 700.226,781.274 712.5,780.5 Z"/></g>
<g><path style="opacity:1" fill="#ee791f" d="M 864.5,849.5 C 872.414,847.739 880.414,847.239 888.5,848C 914.55,850.96 940.55,854.293 966.5,858C 980.642,859.054 994.642,858.054 1008.5,855C 1026.17,852.087 1040,843.254 1050,828.5C 1054.01,822.848 1056.51,816.848 1057.5,810.5C 1046.83,817.131 1035.5,818.298 1023.5,814C 1016.5,813.667 1009.5,813.333 1002.5,813C 989.872,810.815 977.205,808.815 964.5,807C 945.006,802.043 925.339,797.877 905.5,794.5C 907.751,790.083 910.585,786.083 914,782.5C 945.071,790.311 976.571,795.311 1008.5,797.5C 1025.94,797.766 1042.1,793.433 1057,784.5C 1059.83,787.333 1062.67,790.167 1065.5,793C 1054.74,850.07 1020.41,875.404 962.5,869C 929.523,863.438 896.857,856.938 864.5,849.5 Z"/></g>
<g><path style="opacity:1" fill="#96c2e7" d="M 1055.5,849.5 C 1056.12,849.611 1056.62,849.944 1057,850.5C 1064.23,899.161 1064.23,947.827 1057,996.5C 1033.55,1136.82 964.885,1248.82 851,1332.5C 850.829,1324.66 850.329,1316.99 849.5,1309.5C 847.804,1282.58 839.971,1257.58 826,1234.5C 826.153,1215.14 827.153,1195.81 829,1176.5C 831.558,1142.46 826.058,1109.79 812.5,1078.5C 815.828,1075.34 819.328,1072.34 823,1069.5C 824.308,1067.87 825.142,1066.03 825.5,1064C 821.455,1046.1 818.289,1027.93 816,1009.5C 814.5,1003.33 812.5,997.333 810,991.5C 808.262,987.759 805.762,984.592 802.5,982C 794.425,977.475 785.759,974.642 776.5,973.5C 786.04,948.714 795.873,924.047 806,899.5C 812.515,885.635 819.682,872.135 827.5,859C 840.234,859.819 852.901,861.485 865.5,864C 894.805,869.794 924.138,875.461 953.5,881C 967.805,882.464 982.138,882.797 996.5,882C 1021.21,879.984 1040.88,869.15 1055.5,849.5 Z"/></g>
<g><path style="opacity:1" fill="#f07a1f" d="M 779.5,925.5 C 779.477,923.073 778.977,920.74 778,918.5C 768.55,906.05 758.05,894.55 746.5,884C 722.012,872.97 696.345,866.304 669.5,864C 671.86,862.82 674.193,861.653 676.5,860.5C 677.514,861.765 679.014,862.431 681,862.5C 698.43,859.178 715.93,856.345 733.5,854C 761.253,852.173 788.919,853.173 816.5,857C 803.757,879.656 791.423,902.489 779.5,925.5 Z"/></g>
<g><path style="opacity:1" fill="#ac2e24" d="M 334.5,872.5 C 336.604,872.201 338.604,872.534 340.5,873.5C 333.026,891.924 325.359,910.258 317.5,928.5C 307.849,915.278 306.349,901.278 313,886.5C 314.141,884.391 315.641,882.558 317.5,881C 322.98,877.593 328.647,874.76 334.5,872.5 Z"/></g>
<g><path style="opacity:1" fill="#af2e24" d="M 432.5,1021.5 C 430.716,1022.57 429.549,1024.24 429,1026.5C 424.719,1038.51 420.552,1050.51 416.5,1062.5C 382.526,1050.18 350.859,1033.68 321.5,1013C 303.968,998.06 289.135,980.894 277,961.5C 276.333,960.167 276.333,958.833 277,957.5C 282.959,943.582 289.459,929.915 296.5,916.5C 298.384,924.933 301.884,932.6 307,939.5C 312.864,945.699 319.031,951.532 325.5,957C 359.271,981.556 394.937,1003.06 432.5,1021.5 Z"/></g>
<g><path style="opacity:1" fill="#2d2f2d" d="M 774.5,936.5 C 766.845,953.966 760.678,971.966 756,990.5C 753.715,988.093 751.549,985.593 749.5,983C 746.433,981.836 744.767,982.836 744.5,986C 750.426,998.016 757.26,1009.52 765,1020.5C 766.59,1022.65 767.257,1024.98 767,1027.5C 754.999,1034.92 742.165,1040.25 728.5,1043.5C 721.748,1020.19 725.081,998.523 738.5,978.5C 744.802,973.031 750.635,967.031 756,960.5C 762.03,952.315 768.197,944.315 774.5,936.5 Z"/></g>
<g><path style="opacity:1" fill="#ad2e24" d="M 771.5,988.5 C 777.849,988.735 784.183,989.235 790.5,990C 793.656,990.937 796.489,992.437 799,994.5C 800.315,1000.2 798.982,1005.2 795,1009.5C 790.854,1014.65 785.854,1018.65 780,1021.5C 774.35,1016.06 769.516,1009.9 765.5,1003C 767.918,998.332 769.918,993.499 771.5,988.5 Z"/></g>
<g><path style="opacity:1" fill="#af2e24" d="M 753.5,1097.5 C 751.512,1095.54 750.012,1093.2 749,1090.5C 746.653,1081.13 743.32,1072.13 739,1063.5C 737.644,1062.62 736.144,1062.29 734.5,1062.5C 747.582,1058.85 759.915,1053.35 771.5,1046C 781.658,1036.54 791.491,1026.71 801,1016.5C 804.64,1031 806.973,1045.67 808,1060.5C 792.924,1077.41 774.757,1089.75 753.5,1097.5 Z"/></g>
<g><path style="opacity:1" fill="#2c2e2d" d="M 416.5,1079.5 C 409.134,1103.76 400.634,1127.76 391,1151.5C 373.878,1188.41 356.212,1225.08 338,1261.5C 329.835,1275.84 321.168,1289.84 312,1303.5C 302.391,1316.41 292.558,1329.07 282.5,1341.5C 246.839,1318.51 215.172,1290.85 187.5,1258.5C 191.818,1253.21 195.652,1247.54 199,1241.5C 237.904,1169.03 273.571,1095.03 306,1019.5C 310.167,1023 314.333,1026.5 318.5,1030C 349.144,1050.49 381.81,1066.99 416.5,1079.5 Z"/></g>
<g><path style="opacity:1" fill="#e23d32" d="M 432.5,1021.5 C 478.283,1043.7 526.283,1059.2 576.5,1068C 629.616,1076.84 682.283,1075.01 734.5,1062.5C 736.144,1062.29 737.644,1062.62 739,1063.5C 743.32,1072.13 746.653,1081.13 749,1090.5C 750.012,1093.2 751.512,1095.54 753.5,1097.5C 710.191,1113.16 665.525,1119.5 619.5,1116.5C 602.298,1114.18 584.965,1111.85 567.5,1109.5C 542.734,1105.65 518.4,1099.81 494.5,1092C 468.121,1083.04 442.121,1073.21 416.5,1062.5C 420.552,1050.51 424.719,1038.51 429,1026.5C 429.549,1024.24 430.716,1022.57 432.5,1021.5 Z"/></g>
<g><path style="opacity:0.979" fill="#f5921d" d="M 1356.5,1059.5 C 1391.7,1056.34 1425.03,1062.67 1456.5,1078.5C 1457.61,1079.72 1457.78,1081.06 1457,1082.5C 1451.63,1098.13 1445.79,1113.47 1439.5,1128.5C 1409.81,1112.95 1378.81,1109.45 1346.5,1118C 1322.58,1129.28 1308.41,1148.11 1304,1174.5C 1295.05,1261.22 1333.22,1295.72 1418.5,1278C 1426.48,1275.78 1434.15,1272.78 1441.5,1269C 1442.94,1268.22 1444.28,1268.39 1445.5,1269.5C 1450.73,1285.04 1456.07,1300.54 1461.5,1316C 1459.73,1318.39 1457.39,1320.06 1454.5,1321C 1421.49,1334.74 1387.16,1339.74 1351.5,1336C 1297.75,1331.4 1262.59,1303.57 1246,1252.5C 1237.38,1217.81 1237.38,1183.15 1246,1148.5C 1264.55,1096.11 1301.38,1066.45 1356.5,1059.5 Z"/></g>
<g><path style="opacity:0.981" fill="#f5921d" d="M 1548.5,1063.5 C 1566.5,1063.33 1584.5,1063.5 1602.5,1064C 1629.24,1065.09 1653.57,1073.09 1675.5,1088C 1690.73,1100.96 1699.23,1117.46 1701,1137.5C 1704.69,1161.77 1699.02,1183.44 1684,1202.5C 1674.65,1210.86 1664.48,1218.03 1653.5,1224C 1678.22,1257.24 1699.56,1292.74 1717.5,1330.5C 1694.84,1331.67 1672.17,1331.83 1649.5,1331C 1632,1297.65 1612,1265.98 1589.5,1236C 1579.84,1235.5 1570.17,1235.33 1560.5,1235.5C 1560.5,1267.5 1560.5,1299.5 1560.5,1331.5C 1540.17,1331.5 1519.83,1331.5 1499.5,1331.5C 1499.5,1244.17 1499.5,1156.83 1499.5,1069.5C 1515.9,1066.92 1532.24,1064.92 1548.5,1063.5 Z M 1562.5,1115.5 C 1574.5,1115.33 1586.5,1115.5 1598.5,1116C 1634.46,1119.59 1645.96,1138.09 1633,1171.5C 1622.72,1180.82 1610.56,1185.65 1596.5,1186C 1584.51,1186.7 1572.51,1187.2 1560.5,1187.5C 1559.86,1163.27 1560.53,1139.27 1562.5,1115.5 Z"/></g>
<g><path style="opacity:0.982" fill="#f5921d" d="M 1767.5,1066.5 C 1787.41,1066.17 1807.24,1066.51 1827,1067.5C 1852.34,1117.7 1875.84,1168.7 1897.5,1220.5C 1911.56,1188.49 1925.73,1156.49 1940,1124.5C 1948.97,1105.22 1958.47,1086.22 1968.5,1067.5C 1987.15,1066.5 2005.82,1066.17 2024.5,1066.5C 2029.45,1102.37 2033.29,1138.37 2036,1174.5C 2039.85,1226.8 2043.02,1279.13 2045.5,1331.5C 2025.83,1331.5 2006.17,1331.5 1986.5,1331.5C 1985.2,1295.16 1983.7,1258.83 1982,1222.5C 1981.13,1201.41 1979.46,1180.41 1977,1159.5C 1957.33,1205.5 1937.67,1251.5 1918,1297.5C 1903.58,1298.49 1889.08,1298.82 1874.5,1298.5C 1854.97,1251.75 1835.13,1205.08 1815,1158.5C 1810.41,1216.08 1807.58,1273.75 1806.5,1331.5C 1786.5,1331.67 1766.5,1331.5 1746.5,1331C 1749.6,1277.2 1753.1,1223.37 1757,1169.5C 1759.71,1135.08 1763.21,1100.74 1767.5,1066.5 Z"/></g>
<g><path style="opacity:1" fill="#404240" d="M 416.5,1079.5 C 439.28,1088.82 462.28,1097.65 485.5,1106C 517.091,1116.98 549.425,1124.98 582.5,1130C 609.697,1134.38 637.03,1135.55 664.5,1133.5C 650.945,1156.11 652.945,1177.27 670.5,1197C 681.153,1206.72 693.487,1210.88 707.5,1209.5C 730.075,1206.76 744.575,1194.43 751,1172.5C 754.549,1151.61 748.049,1134.61 731.5,1121.5C 741.002,1119.44 750.335,1116.78 759.5,1113.5C 760.376,1113.37 761.043,1113.7 761.5,1114.5C 782.389,1159.58 790.222,1206.91 785,1256.5C 783.309,1279.48 780.476,1302.31 776.5,1325C 776.528,1326.07 776.861,1326.9 777.5,1327.5C 776.833,1328.17 776.167,1328.83 775.5,1329.5C 753.907,1338.59 738.407,1353.93 729,1375.5C 725.269,1383.19 722.435,1391.19 720.5,1399.5C 688.215,1409.94 655.215,1417.27 621.5,1421.5C 627.05,1408.96 629.383,1395.79 628.5,1382C 629.746,1365.15 625.912,1349.65 617,1335.5C 606.705,1324.28 593.871,1318.45 578.5,1318C 546.745,1316.01 516.412,1321.68 487.5,1335C 466.424,1346.04 444.757,1355.71 422.5,1364C 403.386,1367.84 384.053,1369.84 364.5,1370C 363.446,1371.39 363.28,1372.89 364,1374.5C 369.213,1378.05 373.38,1382.55 376.5,1388C 379.756,1389.12 382.422,1390.95 384.5,1393.5C 348.216,1380.36 314.216,1363.03 282.5,1341.5C 292.558,1329.07 302.391,1316.41 312,1303.5C 321.168,1289.84 329.835,1275.84 338,1261.5C 356.212,1225.08 373.878,1188.41 391,1151.5C 400.634,1127.76 409.134,1103.76 416.5,1079.5 Z"/></g>
<g><path style="opacity:1" fill="#2d2f2d" d="M 825.5,1284.5 C 814.578,1304.42 798.578,1318.75 777.5,1327.5C 776.861,1326.9 776.528,1326.07 776.5,1325C 780.476,1302.31 783.309,1279.48 785,1256.5C 790.222,1206.91 782.389,1159.58 761.5,1114.5C 761.043,1113.7 760.376,1113.37 759.5,1113.5C 772.484,1107.59 784.65,1100.26 796,1091.5C 803.114,1110.51 807.114,1130.18 808,1150.5C 806.713,1176.47 806.047,1202.47 806,1228.5C 809.44,1238.72 813.44,1248.72 818,1258.5C 821.072,1267.04 823.572,1275.71 825.5,1284.5 Z"/></g>
<g><path style="opacity:1" fill="#4c3d3a" d="M 567.5,1109.5 C 584.965,1111.85 602.298,1114.18 619.5,1116.5C 602.722,1115.72 586.055,1113.88 569.5,1111C 568.584,1110.72 567.918,1110.22 567.5,1109.5 Z"/></g>
<g><path style="opacity:1" fill="#ed7a20" d="M 711.5,1114.5 C 682.882,1117.12 667.215,1132.78 664.5,1161.5C 665.264,1180.2 673.597,1194.37 689.5,1204C 695.246,1206.77 701.246,1208.6 707.5,1209.5C 693.487,1210.88 681.153,1206.72 670.5,1197C 652.945,1177.27 650.945,1156.11 664.5,1133.5C 676.536,1117.98 692.203,1111.64 711.5,1114.5 Z"/></g>
<g><path style="opacity:1" fill="#f4901e" d="M 711.5,1114.5 C 718.602,1115.72 725.269,1118.06 731.5,1121.5C 748.049,1134.61 754.549,1151.61 751,1172.5C 744.575,1194.43 730.075,1206.76 707.5,1209.5C 701.246,1208.6 695.246,1206.77 689.5,1204C 673.597,1194.37 665.264,1180.2 664.5,1161.5C 667.215,1132.78 682.882,1117.12 711.5,1114.5 Z"/></g>
<g><path style="opacity:1" fill="#f37c1f" d="M 702.5,1126.5 C 730.961,1126.79 744.461,1141.13 743,1169.5C 735.875,1190.27 721.375,1199.1 699.5,1196C 679.643,1188.8 671.143,1174.64 674,1153.5C 678.527,1139.14 688.027,1130.14 702.5,1126.5 Z"/></g>
<g><path style="opacity:1" fill="#f07b20" d="M 825.5,1284.5 C 828.102,1306.15 828.102,1327.82 825.5,1349.5C 807.571,1360.74 788.904,1370.74 769.5,1379.5C 772.155,1362.92 774.155,1346.25 775.5,1329.5C 776.167,1328.83 776.833,1328.17 777.5,1327.5C 798.578,1318.75 814.578,1304.42 825.5,1284.5 Z"/></g>
<g><path style="opacity:1" fill="#f4911e" d="M 621.5,1421.5 C 614.256,1422.66 606.922,1423.49 599.5,1424C 525.413,1430.11 453.747,1419.94 384.5,1393.5C 382.422,1390.95 379.756,1389.12 376.5,1388C 373.38,1382.55 369.213,1378.05 364,1374.5C 363.28,1372.89 363.446,1371.39 364.5,1370C 384.053,1369.84 403.386,1367.84 422.5,1364C 444.757,1355.71 466.424,1346.04 487.5,1335C 516.412,1321.68 546.745,1316.01 578.5,1318C 593.871,1318.45 606.705,1324.28 617,1335.5C 625.912,1349.65 629.746,1365.15 628.5,1382C 629.383,1395.79 627.05,1408.96 621.5,1421.5 Z"/></g>
<g><path style="opacity:1" fill="#f4911e" d="M 775.5,1329.5 C 774.155,1346.25 772.155,1362.92 769.5,1379.5C 753.488,1386.95 737.155,1393.62 720.5,1399.5C 722.435,1391.19 725.269,1383.19 729,1375.5C 738.407,1353.93 753.907,1338.59 775.5,1329.5 Z"/></g>
<g><path style="opacity:0.075" fill="#8ab1d2" d="M 895.5,1373.5 C 894.738,1375.26 893.404,1376.26 891.5,1376.5C 892.262,1374.74 893.596,1373.74 895.5,1373.5 Z"/></g>
<g><path style="opacity:0.704" fill="#92bbde" d="M 891.5,1376.5 C 855.907,1406.65 815.907,1429.65 771.5,1445.5C 775.5,1443.17 779.5,1440.83 783.5,1438.5C 797.777,1431.57 812.111,1424.74 826.5,1418C 848.562,1404.64 870.229,1390.81 891.5,1376.5 Z"/></g>
<g><path style="opacity:1" fill="#484e52" d="M 783.5,1438.5 C 779.5,1440.83 775.5,1443.17 771.5,1445.5C 767.201,1447.94 762.534,1449.6 757.5,1450.5C 754.458,1450.73 751.792,1451.73 749.5,1453.5C 748.833,1453.5 748.167,1453.5 747.5,1453.5C 747.47,1452.5 747.97,1451.84 749,1451.5C 760.574,1447.25 772.074,1442.92 783.5,1438.5 Z"/></g>
<g><path style="opacity:0.012" fill="#7e9db7" d="M 757.5,1450.5 C 755.208,1452.27 752.542,1453.27 749.5,1453.5C 751.792,1451.73 754.458,1450.73 757.5,1450.5 Z"/></g>
<g><path style="opacity:0.477" fill="#89b0d0" d="M 747.5,1453.5 C 748.167,1453.5 748.833,1453.5 749.5,1453.5C 736.904,1458.24 723.904,1461.9 710.5,1464.5C 722.436,1459.86 734.77,1456.19 747.5,1453.5 Z"/></g>
<g><path style="opacity:0.149" fill="#82a5c4" d="M 710.5,1464.5 C 706.453,1466.26 702.12,1467.26 697.5,1467.5C 701.547,1465.74 705.88,1464.74 710.5,1464.5 Z"/></g>
</svg>
